<?xml version="1.0" standalone="no"?>
<!DOCTYPE svg PUBLIC "-//W3C//DTD SVG 1.1//EN" "http://www.w3.org/Graphics/SVG/1.1/DTD/svg11.dtd" >
<svg xmlns="http://www.w3.org/2000/svg" xmlns:xlink="http://www.w3.org/1999/xlink" version="1.1">
<metadata>
Created by FontForge 20170731 at Fri Oct  2 23:02:24 2020
 By Aleksey,,,
Pangram Pangram
</metadata>
<defs>
<font id="MonumentExtended-Black" horiz-adv-x="936" >
  <font-face 
    font-family="Monument Extended Black"
    font-weight="900"
    font-stretch="normal"
    units-per-em="1000"
    panose-1="0 0 10 0 0 0 0 0 0 0"
    ascent="800"
    descent="-200"
    x-height="600"
    cap-height="720"
    bbox="-1060 -310 2080 1060"
    underline-thickness="100"
    underline-position="-160"
    unicode-range="U+0020-25CA"
  />
<missing-glyph horiz-adv-x="550" 
d="M102 800h349v-1100h-349v1100zM366 690v36h-181v-36h71v-41h-72v-36h182v36h-72v41h72zM294 507v77h-110v-114h182v37h-72zM220 547h36v-40h-36v40zM366 404v36h-182v-36h72v-41h-72v-36h110v77h72zM366 264v110h-36v-72h-146v-38h182zM366 116v124h-110v-61h38v25h36
v-52h-110v88h-36v-124h182zM366 -74v124h-182v-124h182zM220 14h110v-52h-110v52zM366 -136v36h-182v-36h77l-77 -52v-36h182v36h-112l77 52h35z" />
    <glyph glyph-name="f_f" unicode="ff" horiz-adv-x="1191" 
d="M995 660q-56 0 -77 -12t-22 -48h255v-170h-255v-430h-230v430h-255v-430h-230v430h-141v170h141v23q0 91 64.5 134t203.5 43h163v-140h-102q-56 0 -77 -12t-22 -48h255v23q0 91 64.5 134t203.5 43h217v-140h-156z" />
    <glyph glyph-name="f_f_i" unicode="ffi" horiz-adv-x="1441" 
d="M995 660q-56 0 -77 -12t-22 -48h485v-600h-230v430h-255v-430h-230v430h-255v-430h-230v430h-141v170h141v23q0 91 64.5 134t203.5 43h176v-140h-115q-56 0 -77 -12t-22 -48h255v23q0 91 64.5 134t203.5 43h447v-140h-386z" />
    <glyph glyph-name="f_i" unicode="fi" horiz-adv-x="956" 
d="M510 660q-56 0 -77 -12t-22 -48h485v-600h-230v430h-255v-430h-230v430h-141v170h141v23q0 91 64.5 134t203.5 43h447v-140h-386z" />
    <glyph glyph-name="f_l" unicode="fl" horiz-adv-x="956" 
d="M896 800v-800h-230v660h-156q-56 0 -77 -12t-22 -48h155v-170h-155v-430h-230v430h-141v170h141v23q0 91 64.5 134t203.5 43h447z" />
    <glyph glyph-name=".notdef" horiz-adv-x="550" 
d="M102 800h349v-1100h-349v1100zM366 690v36h-181v-36h71v-41h-72v-36h182v36h-72v41h72zM294 507v77h-110v-114h182v37h-72zM220 547h36v-40h-36v40zM366 404v36h-182v-36h72v-41h-72v-36h110v77h72zM366 264v110h-36v-72h-146v-38h182zM366 116v124h-110v-61h38v25h36
v-52h-110v88h-36v-124h182zM366 -74v124h-182v-124h182zM220 14h110v-52h-110v52zM366 -136v36h-182v-36h77l-77 -52v-36h182v36h-112l77 52h35z" />
    <glyph glyph-name=".null" horiz-adv-x="0" 
 />
    <glyph glyph-name="nonmarkingreturn" horiz-adv-x="333" 
 />
    <glyph glyph-name="space" unicode=" " horiz-adv-x="390" 
 />
    <glyph glyph-name="exclam" unicode="!" horiz-adv-x="380" 
d="M60 700h260l-10 -460h-240zM70 0v180h240v-180h-240z" />
    <glyph glyph-name="quotedbl" unicode="&#x22;" horiz-adv-x="700" 
d="M380 780h260l-20 -380h-220zM60 780h260l-20 -380h-220z" />
    <glyph glyph-name="numbersign" unicode="#" horiz-adv-x="1335" 
d="M1255 570v-170h-220l-59 -200h179v-170h-230l-54 -180h-220l54 180h-245l-54 -180h-220l54 180h-160v170h211l59 200h-170v170h221l69 230h220l-69 -230h245l69 230h220l-69 -230h169zM511 200h245l59 200h-245z" />
    <glyph glyph-name="dollar" unicode="$" horiz-adv-x="1014" 
d="M854 39.5q-100 -55.5 -297 -59.5v-80h-100v81q-191 9 -290.5 70t-106.5 186h260q0 -64 137 -75v112q-136 12 -220.5 40t-125.5 77t-41 126q0 105 103.5 162.5t283.5 60.5v60h100v-63q174 -11 267 -73t100 -169h-260q0 27 -26 42t-81 20v-102q141 -12 222 -31.5t128 -66.5
t47 -135q0 -127 -100 -182.5zM339.5 493q9.5 -9 36.5 -15.5t81 -12.5v95q-73 -1 -100 -12.5t-27 -31.5q0 -14 9.5 -23zM557 161q82 2 109.5 14.5t27.5 36.5q0 18 -9.5 27t-38 15t-89.5 12v-105z" />
    <glyph glyph-name="percent" unicode="%" horiz-adv-x="1519" 
d="M190.5 284q-64.5 35 -97.5 91t-33 120q0 63 33 119t97.5 91t154.5 35q91 0 155.5 -34.5t97.5 -91t33 -119.5q0 -64 -33 -120t-97.5 -91t-155.5 -35q-90 0 -154.5 35zM890 720h194l-456 -720h-194zM425.5 420q25.5 31 25.5 76q0 44 -25.5 74t-80.5 30t-80 -30t-25 -74
q0 -45 25 -76t80 -31t80.5 31zM1018.5 15q-64.5 35 -97.5 91t-33 120q0 63 33 119t97.5 91t154.5 35q91 0 155.5 -34.5t97.5 -91t33 -119.5q0 -64 -33 -120t-97.5 -91t-155.5 -35q-90 0 -154.5 35zM1253.5 151q25.5 31 25.5 76q0 44 -25.5 74t-80.5 30t-80 -30t-25 -74
q0 -45 25 -76t80 -31t80.5 31z" />
    <glyph glyph-name="ampersand" unicode="&#x26;" horiz-adv-x="1120" 
d="M1060 0h-280l-60 43q-126 -63 -283 -63q-180 0 -278.5 46.5t-98.5 146.5q0 75 51 120t146 76q-46 38 -70 77.5t-24 88.5q0 62 41.5 103.5t107 61.5t140.5 20q130 0 207.5 -47.5t77.5 -131.5q0 -64 -50.5 -103.5t-137.5 -65.5l16 -11l161 -117q33 53 45 134h180
q-10 -132 -94 -230zM400 564q-27 -16 -27 -47q0 -28 20.5 -48.5t58.5 -42.5q58 20 81.5 42t23.5 50q0 31 -25.5 46.5t-63.5 15.5q-41 0 -68 -16zM580 142l-143 101l-88 60q-59 -38 -59 -87q0 -45 44 -65.5t139 -20.5q59 0 107 12z" />
    <glyph glyph-name="quotesingle" unicode="'" horiz-adv-x="380" 
d="M60 780h260l-20 -380h-220z" />
    <glyph glyph-name="parenleft" unicode="(" horiz-adv-x="650" 
d="M197 686q137 114 393 114v-190q-101 0 -161.5 -27.5t-89.5 -94.5t-29 -188t29.5 -188.5t89.5 -94.5t161 -27v-190q-168 0 -284.5 46.5t-181 157t-64.5 296.5q0 272 137 386z" />
    <glyph glyph-name="parenright" unicode=")" horiz-adv-x="650" 
d="M525.5 3.5q-64.5 -110.5 -181 -157t-284.5 -46.5v190q101 0 161 27t89.5 94.5t29.5 188.5t-29 188t-89.5 94.5t-161.5 27.5v190q256 0 393 -114t137 -386q0 -186 -64.5 -296.5z" />
    <glyph glyph-name="asterisk" unicode="*" horiz-adv-x="655" 
d="M120 394l-60 115l187 68l-187 68l60 114l161 -106l-24 167h140l-23 -167l161 107l60 -115l-188 -68l188 -68l-60 -114l-161 105l23 -167h-140l24 167z" />
    <glyph glyph-name="plus" unicode="+" horiz-adv-x="920" 
d="M565 425h295v-170h-295v-255h-210v255h-295v170h295v255h210v-255z" />
    <glyph glyph-name="comma" unicode="," horiz-adv-x="360" 
d="M60 0v180h240v-180l-113 -220h-107l68 220h-88z" />
    <glyph glyph-name="hyphen" unicode="-" horiz-adv-x="960" 
d="M80 255v170h800v-170h-800z" />
    <glyph glyph-name="period" unicode="." horiz-adv-x="360" 
d="M60 0v180h240v-180h-240z" />
    <glyph glyph-name="slash" unicode="/" horiz-adv-x="634" 
d="M354 800h220l-284 -950h-220z" />
    <glyph glyph-name="zero" unicode="0" horiz-adv-x="960" 
d="M247 28q-97 48 -147 134.5t-50 198.5t50 197.5t147 133.5t233 48q135 0 232 -48t147.5 -134t50.5 -197q0 -112 -50.5 -198t-147.5 -134.5t-232 -48.5q-136 0 -233 48zM613 226q47 46 47 135q0 88 -46.5 133.5t-133.5 45.5t-133.5 -45t-46.5 -134t47 -135t133 -46t133 46z
" />
    <glyph glyph-name="one" unicode="1" horiz-adv-x="820" 
d="M535 720v-530h225v-190h-700v190h225v327l-174 -50l-51 183l250 70h225z" />
    <glyph glyph-name="two" unicode="2" horiz-adv-x="914" 
d="M803 386q-51 -52 -119.5 -79t-171.5 -55q-69 -18 -104.5 -31t-46.5 -31h483v-190h-784v110q0 80 49.5 133t116.5 82.5t174 63.5q67 20 105.5 35t63.5 35t25 46q0 32 -25 48.5t-85 16.5q-154 0 -154 -105h-260q14 141 129 208t292 67q169 0 266 -57t97 -164
q0 -81 -51 -133z" />
    <glyph glyph-name="three" unicode="3" horiz-adv-x="924" 
d="M874 212q0 -112 -98 -172t-282 -60q-151 0 -245 29t-141.5 89.5t-57.5 156.5h250q0 -49 41.5 -72t132.5 -23q79 0 110.5 17.5t31.5 53.5q0 27 -15.5 41.5t-55.5 21t-118 6.5v140q71 0 110 7t54 20.5t15 37.5q0 32 -31.5 48.5t-105.5 16.5q-88 0 -128.5 -24.5t-40.5 -80.5
h-240q15 141 123 208t314 67q177 0 272 -56t95 -161q0 -109 -108 -152q118 -46 118 -159z" />
    <glyph glyph-name="four" unicode="4" horiz-adv-x="974" 
d="M794 270h120v-180h-120v-90h-250v90h-484v180l484 450h250v-450zM544 501l-250 -231h250v231z" />
    <glyph glyph-name="five" unicode="5" horiz-adv-x="894" 
d="M769 423q75 -62 75 -172q0 -83 -43.5 -144t-129.5 -94t-209 -33q-176 0 -290.5 64.5t-121.5 195.5h260q8 -38 44 -59t99 -21q64 0 97.5 23.5t33.5 71.5q0 43 -29 66.5t-85 23.5q-44 0 -77 -11.5t-72 -40.5l-229 44l57 383h635v-180h-434l-12 -100q49 21 101.5 33
t122.5 12q132 0 207 -62z" />
    <glyph glyph-name="six" unicode="6" horiz-adv-x="910" 
d="M774 424q76 -61 76 -178q0 -132 -96 -199t-281 -67q-413 0 -413 363q0 206 127 301.5t341 95.5q76 0 129.5 -4t132.5 -16v-180q-76 11 -126 15.5t-112 4.5q-113 0 -166 -28t-63 -101q49 25 105 39.5t130 14.5q140 0 216 -61zM590 253q0 92 -135 92q-71 0 -103 -23.5
t-32 -68.5q0 -93 135 -93t135 93z" />
    <glyph glyph-name="seven" unicode="7" horiz-adv-x="863" 
d="M60 720h743v-190q-126 -80 -201.5 -162t-109 -171.5t-33.5 -196.5h-250q0 159 73 293t251 237h-473v190z" />
    <glyph glyph-name="eight" unicode="8" horiz-adv-x="980" 
d="M872.5 312.5q47.5 -45.5 47.5 -115.5q0 -69 -39 -116.5t-133.5 -74t-257.5 -26.5t-258 26.5t-133.5 74t-38.5 116.5q0 70 47.5 115.5t146.5 67.5q-134 46 -134 168q0 93 95.5 142.5t274.5 49.5t274.5 -49.5t95.5 -142.5q0 -122 -135 -168q100 -22 147.5 -67.5z
M389.5 575.5q-29.5 -14.5 -29.5 -45.5t29 -45.5t101 -14.5t101 14.5t29 45.5t-29.5 45.5t-100.5 14.5t-100.5 -14.5zM650 215q0 38 -38 56.5t-122 18.5t-122 -18.5t-38 -56.5t38.5 -56.5t121.5 -18.5q160 0 160 75z" />
    <glyph glyph-name="nine" unicode="9" horiz-adv-x="920" 
d="M860 377q0 -206 -127 -301.5t-341 -95.5q-76 0 -129.5 4t-132.5 16v180q76 -11 126 -15.5t112 -4.5q113 0 166 28t63 101q-49 -25 -105 -39.5t-130 -14.5q-140 0 -216 61t-76 178q0 132 96 199t281 67q413 0 413 -363zM568 398.5q32 23.5 32 68.5q0 93 -135 93t-135 -93
q0 -92 135 -92q71 0 103 23.5z" />
    <glyph glyph-name="colon" unicode=":" horiz-adv-x="360" 
d="M60 0v180h240v-180h-240zM60 300v180h240v-180h-240z" />
    <glyph glyph-name="semicolon" unicode=";" horiz-adv-x="360" 
d="M60 0v180h240v-180l-113 -220h-107l68 220h-88zM60 300v180h240v-180h-240z" />
    <glyph glyph-name="less" unicode="&#x3c;" horiz-adv-x="920" 
d="M60 490l800 110v-193l-616 -67l616 -67v-193l-800 110v300z" />
    <glyph glyph-name="equal" unicode="=" horiz-adv-x="920" 
d="M60 415v170h800v-170h-800zM60 95v170h800v-170h-800z" />
    <glyph glyph-name="greater" unicode="&#x3e;" horiz-adv-x="920" 
d="M60 407v193l800 -110v-300l-800 -110v193l616 67z" />
    <glyph glyph-name="question" unicode="?" horiz-adv-x="864" 
d="M291 240q0 62 25 103t59 63t87 46q43 19 62.5 32.5t19.5 34.5q0 23 -23 37t-74 14q-70 0 -108.5 -26.5t-38.5 -88.5h-240q7 145 111.5 215t285.5 70q172 0 259.5 -44.5t87.5 -136.5q0 -47 -20 -79.5t-49.5 -52.5t-76.5 -44q-43 -23 -68 -39.5t-42 -42t-17 -61.5h-240z
M291 0v180h240v-180h-240z" />
    <glyph glyph-name="at" unicode="@" horiz-adv-x="1377" 
d="M1005 -114.5q117 25.5 223 69.5l65 -132q-84 -40 -151 -64.5t-165.5 -41.5t-232.5 -17q-351 0 -517.5 144t-166.5 424q0 267 168 414.5t516 147.5q192 0 320 -60.5t190.5 -171t62.5 -262.5q0 -175 -69 -259.5t-205 -84.5q-79 0 -132.5 31.5t-79.5 84.5q-28 -49 -77.5 -76
t-119.5 -27q-125 0 -189 72t-64 188t64 188t189 72q112 0 173 -69v55h160v-300q0 -41 5 -65t23 -39t56 -15q55 0 75.5 55t20.5 158q0 141 -39.5 219.5t-126.5 112t-237 33.5q-187 0 -299.5 -42.5t-163.5 -130.5t-51 -229q0 -147 50.5 -236t163 -130.5t300.5 -41.5
q144 0 261 25.5zM807 265q0 110 -128 110t-128 -110t128 -110t128 110z" />
    <glyph glyph-name="A" unicode="A" horiz-adv-x="1146" 
d="M1096 0h-266l-59 126h-396l-59 -126h-266l345 720h356zM573 548l-114 -242h228z" />
    <glyph glyph-name="B" unicode="B" horiz-adv-x="958" 
d="M908 199q0 -93 -60 -146t-188 -53h-600v720h560q134 0 191 -46t57 -130q0 -62 -33 -104t-91 -63q164 -42 164 -178zM310 540v-104h230q29 0 44 2.5t24.5 13.5t9.5 36t-9.5 36t-24.5 13.5t-44 2.5h-230zM580 180q24 0 37 2.5t22 14t9 35.5t-9 35.5t-22 14t-37 2.5h-270
v-104h270z" />
    <glyph glyph-name="C" unicode="C" horiz-adv-x="977" 
d="M164.5 644q114.5 96 325.5 96q196 0 308.5 -79.5t128.5 -229.5h-266q-9 40 -52 69.5t-119 29.5q-92 0 -136 -46.5t-44 -122.5q0 -77 44 -124t136 -47q76 0 119 30t52 71h266q-16 -151 -128.5 -231t-308.5 -80q-211 0 -325.5 96.5t-114.5 284.5q0 187 114.5 283z" />
    <glyph glyph-name="D" unicode="D" horiz-adv-x="958" 
d="M742.5 680.5q74.5 -39.5 120 -120.5t45.5 -200t-45.5 -200t-120 -120.5t-162.5 -39.5h-520v720h520q88 0 162.5 -39.5zM480 210q52 0 86 7.5t58 40t24 102.5t-24 102.5t-58 40t-86 7.5h-170v-300h170z" />
    <glyph glyph-name="E" unicode="E" horiz-adv-x="860" 
d="M800 720v-190h-490v-75h470v-190h-470v-75h490v-190h-740v720h740z" />
    <glyph glyph-name="F" unicode="F" horiz-adv-x="860" 
d="M800 720v-210h-490v-105h430v-210h-430v-195h-250v720h740z" />
    <glyph glyph-name="G" unicode="G" horiz-adv-x="977" 
d="M108 569.5q58 85.5 160 128t234 42.5q122 0 216.5 -36t149 -100.5t59.5 -147.5h-266q-9 29 -47 51.5t-110 22.5q-99 0 -146.5 -48t-47.5 -131q0 -87 50 -134t175 -47q57 0 102 9.5t90 28.5v43h-224v150h424v-321q-103 -57 -199 -78.5t-208 -21.5q-141 0 -247 43
t-164.5 128.5t-58.5 209.5q0 123 58 208.5z" />
    <glyph glyph-name="H" unicode="H" horiz-adv-x="1030" 
d="M720 465v255h250v-720h-250v255h-410v-255h-250v720h250v-255h410z" />
    <glyph glyph-name="I" unicode="I" horiz-adv-x="370" 
d="M60 720h250v-720h-250v720z" />
    <glyph glyph-name="J" unicode="J" horiz-adv-x="960" 
d="M900 351q0 -186 -100.5 -278.5t-319.5 -92.5q-214 0 -317 93t-103 278h250q0 -161 170 -161t170 161v159h-261v210h511v-369z" />
    <glyph glyph-name="K" unicode="K" horiz-adv-x="1022" 
d="M604 720h368l-335 -289l335 -431h-304l-208 278l-150 -129v-149h-250v720h250v-271z" />
    <glyph glyph-name="L" unicode="L" horiz-adv-x="820" 
d="M310 720v-510h470v-210h-720v720h250z" />
    <glyph glyph-name="M" unicode="M" horiz-adv-x="1292" 
d="M1232 720v-720h-250v480l-220 -480h-232l-220 480v-480h-250v720h390l196 -429l196 429h390z" />
    <glyph glyph-name="N" unicode="N" horiz-adv-x="1082" 
d="M772 244v476h250v-720h-370l-342 476v-476h-250v720h370z" />
    <glyph glyph-name="O" unicode="O" horiz-adv-x="1040" 
d="M266 24.5q-105 44.5 -160.5 130t-55.5 206.5t55.5 206t160.5 129t254 44q148 0 253.5 -44.5t161 -129.5t55.5 -205q0 -121 -55.5 -206.5t-161 -130t-253.5 -44.5q-149 0 -254 44.5zM730 361q0 78 -47.5 123.5t-162.5 45.5t-162.5 -45.5t-47.5 -123.5q0 -171 210 -171
t210 171z" />
    <glyph glyph-name="P" unicode="P" horiz-adv-x="968" 
d="M841.5 647.5q76.5 -72.5 76.5 -200.5t-76.5 -200.5t-211.5 -72.5h-320v-174h-250v720h570q135 0 211.5 -72.5zM570 384q30 0 47.5 3t29 16.5t11.5 43.5t-11.5 43.5t-29 16.5t-47.5 3h-260v-126h260z" />
    <glyph glyph-name="Q" unicode="Q" horiz-adv-x="1067" 
d="M1027 58l-120 -120l-110 97q-113 -55 -277 -55q-149 0 -254 44.5t-160.5 130t-55.5 206.5t55.5 206t160.5 129t254 44q148 0 253.5 -44.5t161 -129.5t55.5 -205q0 -128 -62 -216zM611 200l-88 78l120 120l84 -75q3 20 3 38q0 78 -47.5 123.5t-162.5 45.5t-162.5 -45.5
t-47.5 -123.5q0 -171 210 -171q49 0 91 10z" />
    <glyph glyph-name="R" unicode="R" horiz-adv-x="988" 
d="M882.5 243.5q35.5 -35.5 35.5 -99.5v-144h-250v102q0 48 -16 65t-64 17h-278v-184h-250v720h560q148 0 223 -59.5t75 -173.5q0 -81 -34 -131t-100 -73q63 -4 98.5 -39.5zM310 520v-136h250q36 0 55 3.5t31 18t12 46.5t-12 46.5t-31 18t-55 3.5h-250z" />
    <glyph glyph-name="S" unicode="S" horiz-adv-x="994" 
d="M310 237q0 -77 197 -77q74 0 112.5 6.5t51.5 17.5t13 28q0 21 -14 30.5t-55 16t-138 13.5q-147 11 -237.5 38t-135 77t-44.5 130q0 108 109 165.5t298 57.5q212 0 325.5 -62.5t121.5 -182.5h-260q0 35 -45 50t-142 15q-85 0 -116 -11.5t-31 -32.5q0 -17 14 -26.5
t55.5 -16.5t127.5 -15q156 -13 241 -31.5t135.5 -65.5t50.5 -139q0 -131 -108 -186.5t-319 -55.5q-225 0 -342.5 60t-124.5 197h260z" />
    <glyph glyph-name="T" unicode="T" horiz-adv-x="960" 
d="M910 720v-210h-305v-510h-250v510h-305v210h860z" />
    <glyph glyph-name="U" unicode="U" horiz-adv-x="1000" 
d="M940 351q0 -185 -106.5 -278t-333.5 -93q-228 0 -334 92.5t-106 278.5v369h250v-359q0 -75 42.5 -123t147.5 -48t147.5 48.5t42.5 122.5v359h250v-369z" />
    <glyph glyph-name="V" unicode="V" horiz-adv-x="1146" 
d="M573 172l257 548h266l-345 -720h-356l-345 720h266z" />
    <glyph glyph-name="W" unicode="W" horiz-adv-x="1662" 
d="M1195 191l165 529h252l-232 -720h-360l-189 515l-189 -515h-360l-232 720h252l165 -529l199 529h330z" />
    <glyph glyph-name="X" unicode="X" horiz-adv-x="1152" 
d="M386 0h-336l356 360l-356 360h336l190 -210l190 210h336l-356 -360l356 -360h-336l-190 210z" />
    <glyph glyph-name="Y" unicode="Y" horiz-adv-x="1124" 
d="M562 450l202 270h310l-387 -480v-240h-250v240l-387 480h310z" />
    <glyph glyph-name="Z" unicode="Z" horiz-adv-x="930" 
d="M60 720h810v-210l-448 -300h448v-210h-810v210l448 300h-448v210z" />
    <glyph glyph-name="bracketleft" unicode="[" horiz-adv-x="650" 
d="M590 800v-190h-280v-620h280v-190h-530v1000h530z" />
    <glyph glyph-name="backslash" unicode="\" horiz-adv-x="624" 
d="M344 -150l-284 950h220l284 -950h-220z" />
    <glyph glyph-name="bracketright" unicode="]" horiz-adv-x="650" 
d="M60 800h530v-1000h-530v190h280v620h-280v190z" />
    <glyph glyph-name="asciicircum" unicode="^" horiz-adv-x="921" 
d="M611 800l250 -450h-218l-182 339l-183 -339h-218l251 450h300z" />
    <glyph glyph-name="underscore" unicode="_" horiz-adv-x="1160" 
d="M80 -220v180h1000v-180h-1000z" />
    <glyph glyph-name="grave" unicode="`" horiz-adv-x="509" 
d="M60 860l389 -80v-103l-389 80v103z" />
    <glyph glyph-name="a" unicode="a" horiz-adv-x="938" 
d="M724.5 589q81.5 -31 122 -99.5t41.5 -182.5v-307h-230v80q-75 -46 -165.5 -68t-175.5 -22q-127 0 -202 45t-75 146q0 112 99 158.5t246 46.5q127 0 273 -30q-4 58 -51.5 81t-134.5 23q-79 0 -160.5 -11.5t-190.5 -36.5l-32 157q229 51 426 51q128 0 209.5 -31zM658 180
v46q-140 20 -239 20q-76 0 -107.5 -11t-31.5 -38q0 -26 26 -36.5t90 -10.5q82 0 262 30z" />
    <glyph glyph-name="b" unicode="b" 
d="M727 588.5q74 -31.5 121.5 -103t47.5 -185.5t-47.5 -185.5t-121.5 -103t-159 -31.5q-88 0 -161.5 30.5t-116.5 96.5v-107h-230v800h230v-307q43 66 116.5 96.5t161.5 30.5q85 0 159 -31.5zM610.5 202q45.5 32 45.5 98t-45.5 98t-137.5 32t-137.5 -32t-45.5 -98t45.5 -98
t137.5 -32t137.5 32z" />
    <glyph glyph-name="c" unicode="c" horiz-adv-x="934" 
d="M150 539q110 81 318 81q187 0 295.5 -66t130.5 -199h-235q-32 85 -191 85q-99 0 -148.5 -34t-49.5 -106t49.5 -106t148.5 -34q159 0 191 85h235q-22 -133 -130.5 -199t-295.5 -66q-208 0 -318 81t-110 239t110 239z" />
    <glyph glyph-name="d" unicode="d" 
d="M646 800h230v-800h-230v107q-43 -66 -116.5 -96.5t-161.5 -30.5q-85 0 -159 31.5t-121.5 103t-47.5 185.5t47.5 185.5t121.5 103t159 31.5q88 0 161.5 -30.5t116.5 -96.5v307zM600.5 202q45.5 32 45.5 98t-45.5 98t-137.5 32t-137.5 -32t-45.5 -98t45.5 -98t137.5 -32
t137.5 32z" />
    <glyph glyph-name="e" unicode="e" horiz-adv-x="934" 
d="M606.5 166.5q41.5 16.5 57.5 48.5h225q-31 -116 -130.5 -175.5t-282.5 -59.5q-206 0 -321 82t-115 238q0 104 54 175.5t150 108t223 36.5q199 0 313 -90t114 -268h-621q11 -62 63.5 -87t148.5 -25q80 0 121.5 16.5zM345 448q-46 -22 -64 -72h375q-19 50 -65.5 72
t-123.5 22q-76 0 -122 -22z" />
    <glyph glyph-name="f" unicode="f" horiz-adv-x="686" 
d="M438 654q-25 -16 -27 -54h235v-170h-235v-430h-230v430h-141v170h141v23q0 93 72.5 145t215.5 52q94 0 177 -10v-147l-26 2q-59 5 -90 5q-67 0 -92 -16z" />
    <glyph glyph-name="g" unicode="g" 
d="M646 600h230v-537q-1 -170 -92 -246.5t-281 -76.5q-197 0 -426 51l32 172q114 -22 194.5 -32.5t156.5 -10.5q92 0 139 28.5t47 106.5v69q-43 -64 -116.5 -94t-161.5 -30q-84 0 -158.5 31t-122 100.5t-47.5 178.5t47.5 178.5t122 100.5t158.5 31q88 0 161.5 -30t116.5 -94
v104zM603 220q43 30 43 90t-43 90t-140 30t-140 -30t-43 -90t43 -90t140 -30t140 30z" />
    <glyph glyph-name="h" unicode="h" horiz-adv-x="999" 
d="M939 321v-321h-230v235q0 102 -42 148.5t-146 46.5q-112 0 -171.5 -49t-59.5 -146v-235h-230v800h230v-340q60 76 142.5 118t201.5 42q305 0 305 -299z" />
    <glyph glyph-name="i" unicode="i" horiz-adv-x="350" 
d="M60 660v140h230v-140h-230zM60 0v600h230v-600h-230z" />
    <glyph glyph-name="j" unicode="j" horiz-adv-x="535" 
d="M245 660v140h230v-140h-230zM475 27q0 -287 -278 -287q-92 0 -177 15v175q34 -4 63.5 -7t59.5 -3q42 0 63 9t30 33.5t9 73.5v564h230v-573z" />
    <glyph glyph-name="k" unicode="k" horiz-adv-x="972" 
d="M584 600h348l-342 -249l342 -351h-286l-217 234l-139 -101v-133h-230v800h230v-420z" />
    <glyph glyph-name="l" unicode="l" horiz-adv-x="350" 
d="M60 0v800h230v-800h-230z" />
    <glyph glyph-name="m" unicode="m" horiz-adv-x="1408" 
d="M1273.5 549.5q74.5 -70.5 74.5 -218.5v-331h-230v295q0 74 -33 104.5t-105 30.5t-116.5 -32t-44.5 -103v-295h-230v295q0 74 -33 104.5t-105 30.5t-116.5 -32t-44.5 -103v-295h-230v600h230v-106q103 126 264 126q85 0 149.5 -37.5t93.5 -116.5q53 74 123 114t163 40
q116 0 190.5 -70.5z" />
    <glyph glyph-name="n" unicode="n" horiz-adv-x="999" 
d="M939 321v-321h-230v235q0 102 -42 148.5t-146 46.5q-112 0 -171.5 -49t-59.5 -146v-235h-230v600h230v-140q60 76 142.5 118t201.5 42q305 0 305 -299z" />
    <glyph glyph-name="o" unicode="o" 
d="M149 64q-109 84 -109 236t109 236t319 84t319 -84t109 -236t-109 -236t-319 -84t-319 84zM610 193.5q46 33.5 46 106.5t-46 106.5t-142 33.5t-142 -33.5t-46 -106.5t46 -106.5t142 -33.5t142 33.5z" />
    <glyph glyph-name="p" unicode="p" 
d="M727 588.5q74 -31.5 121.5 -103t47.5 -185.5t-47.5 -185.5t-121.5 -103t-159 -31.5q-88 0 -161.5 30.5t-116.5 96.5v-347h-230v840h230v-107q43 66 116.5 96.5t161.5 30.5q85 0 159 -31.5zM610.5 202q45.5 32 45.5 98t-45.5 98t-137.5 32t-137.5 -32t-45.5 -98t45.5 -98
t137.5 -32t137.5 32z" />
    <glyph glyph-name="q" unicode="q" 
d="M646 600h230v-840h-230v347q-43 -66 -116.5 -96.5t-161.5 -30.5q-85 0 -159 31.5t-121.5 103t-47.5 185.5t47.5 185.5t121.5 103t159 31.5q88 0 161.5 -30.5t116.5 -96.5v107zM600.5 202q45.5 32 45.5 98t-45.5 98t-137.5 32t-137.5 -32t-45.5 -98t45.5 -98t137.5 -32
t137.5 32z" />
    <glyph glyph-name="r" unicode="r" horiz-adv-x="722" 
d="M611 613q34 -7 71 -23v-200q-48 17 -82 23.5t-73 6.5q-62 0 -121 -27t-116 -99v-294h-230v600h230v-130q46 80 105.5 115t140.5 35q41 0 75 -7z" />
    <glyph glyph-name="s" unicode="s" horiz-adv-x="894" 
d="M280 201q0 -26 14.5 -41t53 -22.5t109.5 -7.5q66 0 99.5 5.5t45.5 16.5t12 31q0 22 -14.5 31.5t-48.5 14t-124 10.5q-141 10 -217 25.5t-115.5 51t-39.5 103.5q0 112 105 156.5t284 44.5q173 0 278 -47t112 -155h-240q0 34 -37 48t-118 14q-79 0 -111.5 -11t-32.5 -34
q0 -17 13 -25.5t48.5 -13.5t120.5 -12q148 -13 220 -26.5t114.5 -50.5t42.5 -113q0 -84 -47.5 -131t-131.5 -65t-208 -18q-206 0 -316.5 50.5t-110.5 170.5h240z" />
    <glyph glyph-name="t" unicode="t" horiz-adv-x="676" 
d="M636 430h-245v-164q0 -46 21 -71t71 -25q39 0 68.5 4t84.5 16v-185q-110 -25 -207 -25q-268 0 -268 207v243h-121v170h121v110l230 60v-170h245v-170z" />
    <glyph glyph-name="u" unicode="u" horiz-adv-x="999" 
d="M709 600h230v-600h-230v140q-60 -76 -142.5 -118t-201.5 -42q-305 0 -305 299v321h230v-235q0 -102 42 -148.5t146 -46.5q112 0 171.5 49t59.5 146v235z" />
    <glyph glyph-name="v" unicode="v" horiz-adv-x="999" 
d="M500 126l226 474h233l-290 -600h-339l-290 600h233z" />
    <glyph glyph-name="w" unicode="w" horiz-adv-x="1597" 
d="M1144 156l186 444h227l-251 -600h-320l-187 391l-188 -391h-320l-251 600h227l186 -444l211 444h269z" />
    <glyph glyph-name="x" unicode="x" horiz-adv-x="1006" 
d="M341 0h-301l309 300l-309 300h301l162 -180l162 180h301l-309 -300l309 -300h-301l-162 180z" />
    <glyph glyph-name="y" unicode="y" horiz-adv-x="989" 
d="M726 600h233l-282 -585q-45 -93 -92.5 -152.5t-112.5 -91t-155 -31.5q-49 0 -109 9t-118 26v175q134 -30 193 -30q43 0 67.5 5t44 22t40.5 53h-108l-287 600h233l226 -472z" />
    <glyph glyph-name="z" unicode="z" horiz-adv-x="834" 
d="M60 600h714v-170l-409 -260h409v-170h-714v170l409 260h-409v170z" />
    <glyph glyph-name="braceleft" unicode="{" horiz-adv-x="650" 
d="M60 396q52 0 83.5 6.5t52.5 32.5t21 80q0 17 -1 26q-2 26 -2 38q0 85 37.5 132.5t119 68t219.5 20.5v-190q-75 0 -115.5 -10t-58 -37.5t-13.5 -81.5q1 -8 1 -24q0 -84 -40 -115t-90 -31v-20q54 0 95 -35.5t34 -134.5q-1 -7 -1 -20q0 -46 19.5 -70t59 -32.5t109.5 -8.5
v-190q-143 0 -224 20.5t-116.5 67.5t-35.5 131q0 12 2 42q1 9 1 26q0 54 -21 80t-52.5 32.5t-83.5 6.5v190z" />
    <glyph glyph-name="bar" unicode="|" horiz-adv-x="330" 
d="M60 -150v950h210v-950h-210z" />
    <glyph glyph-name="braceright" unicode="}" horiz-adv-x="670" 
d="M610 206q-52 0 -83.5 -6.5t-52.5 -32.5t-21 -80q0 -17 1 -26q2 -30 2 -42q0 -84 -35.5 -131t-116.5 -67.5t-224 -20.5v190q75 0 115.5 10t58 38t13.5 83q-1 8 -1 24q0 84 40 115t90 31v20q-54 0 -95 35.5t-34 134.5q1 7 1 20q0 45 -19.5 68.5t-59 32t-109.5 8.5v190
q138 0 219.5 -20.5t119 -68t37.5 -132.5q0 -12 -2 -38q-1 -9 -1 -26q0 -54 21 -80t52.5 -32.5t83.5 -6.5v-190z" />
    <glyph glyph-name="asciitilde" unicode="~" horiz-adv-x="920" 
d="M60 180q0 152 54 236t156 84q52 0 93 -17t98 -51q43 -26 71.5 -39t57.5 -13q43 0 61.5 26.5t18.5 93.5h190q0 -152 -54 -236t-156 -84q-52 0 -93 17t-98 51q-43 26 -71.5 39t-57.5 13q-43 0 -61.5 -26.5t-18.5 -93.5h-190z" />
    <glyph glyph-name="exclamdown" unicode="&#xa1;" horiz-adv-x="380" 
d="M310 420h-240v180h240v-180zM310 360l10 -460h-260l10 460h240z" />
    <glyph glyph-name="cent" unicode="&#xa2;" horiz-adv-x="954" 
d="M527 212q116 13 142 83h235q-21 -124 -116.5 -190t-260.5 -74v-131h-100v131q-184 10 -280.5 90.5t-96.5 228.5t96.5 228.5t280.5 90.5v131h100v-131q165 -8 260.5 -74t116.5 -190h-235q-26 70 -142 83v-276zM427 213v274q-147 -15 -147 -137t147 -137z" />
    <glyph glyph-name="sterling" unicode="&#xa3;" horiz-adv-x="860" 
d="M447 527.5q-36 -22.5 -36 -78.5q0 -27 7 -58h266v-60h-259q-5 -102 -173 -141h548v-190h-740v190l28 27q47 46 66 68t25 46h-119v60h119q-3 15 -9 37q-13 42 -13 82q0 105 90.5 167.5t268.5 62.5q72 0 133.5 -7t150.5 -23v-189q-83 16 -134 22.5t-103 6.5
q-80 0 -116 -22.5z" />
    <glyph glyph-name="currency" unicode="&#xa4;" 
d="M798 115l76 -76l-85 -85l-104 104q-90 -28 -207 -28t-207 28l-104 -104l-85 85l76 76q-108 83 -108 235q0 153 108 235l-76 76l85 85l104 -104q90 28 207 28t207 -28l104 104l85 -85l-76 -76q108 -82 108 -235q0 -152 -108 -235zM353 233q45 -23 125 -23q96 0 142 33.5
t46 106.5q0 59 -31 93l-31 24q-45 23 -126 23q-96 0 -142 -33.5t-46 -106.5q0 -50 22 -81l3 3z" />
    <glyph glyph-name="yen" unicode="&#xa5;" horiz-adv-x="1172" 
d="M774 720h310l-298 -370h225v-60h-274l-40 -50v-20h314v-60h-314v-160h-250v160h-286v60h286v20l-40 50h-246v60h197l-298 370h310l202 -270z" />
    <glyph glyph-name="brokenbar" unicode="&#xa6;" horiz-adv-x="330" 
d="M60 425v375h210v-375h-210zM60 -150v375h210v-375h-210z" />
    <glyph glyph-name="section" unicode="&#xa7;" horiz-adv-x="924" 
d="M825 160q39 -43 39 -117q0 -121 -105 -167.5t-287 -46.5q-379 0 -392 212h240q0 -40 35.5 -53t121.5 -13q81 0 114 14.5t33 44.5q0 22 -13.5 33t-52 18.5t-121.5 14.5q-138 12 -210 25t-114.5 46t-42.5 96q0 61 37.5 95.5t108.5 49.5q-79 23 -117.5 64t-38.5 110
q0 121 105 167.5t287 46.5q379 0 392 -212h-240q0 40 -35.5 53t-121.5 13q-81 0 -114 -14.5t-33 -44.5q0 -17 13.5 -26t52.5 -16t121 -14q138 -12 210 -25t114.5 -46t42.5 -96q0 -61 -37.5 -95.5t-110.5 -50.5q80 -23 119 -66zM316.5 292q16.5 -12 55.5 -19t115 -13l13 -1
q10 -1 29 -1q95 0 95 55q0 22 -16.5 34t-56 19t-114.5 13l-17 1q-9 1 -26 1q-94 0 -94 -55q0 -22 16.5 -34z" />
    <glyph glyph-name="dieresis" unicode="&#xa8;" horiz-adv-x="560" 
d="M60 700v100h180v-100h-180zM320 700v100h180v-100h-180z" />
    <glyph glyph-name="copyright" unicode="&#xa9;" horiz-adv-x="945" 
d="M248 34q-93 44 -140.5 125.5t-47.5 191.5t47.5 190.5t140.5 124.5t225 44t224.5 -43.5t140 -124.5t47.5 -191t-47.5 -191.5t-140 -125.5t-224.5 -44t-225 44zM714.5 141q84.5 71 84.5 210t-84 209t-242 70t-242.5 -70.5t-84.5 -208.5q0 -139 85 -210t242 -71t241.5 71z
M308 489q64 47 174 47q188 0 219 -144h-86q-12 35 -43.5 49.5t-99.5 14.5t-105 -24.5t-37 -81.5t37 -81.5t105 -24.5t99.5 14.5t43.5 49.5h86q-31 -144 -219 -144q-110 0 -174 47t-64 139t64 139z" />
    <glyph glyph-name="guillemotleft" unicode="&#xab;" horiz-adv-x="1078" 
d="M480 300l260 300h278l-260 -300l260 -300h-278zM60 300l260 300h278l-260 -300l260 -300h-278z" />
    <glyph glyph-name="logicalnot" unicode="&#xac;" horiz-adv-x="920" 
d="M60 455h800v-400h-210v230h-590v170z" />
    <glyph glyph-name="registered" unicode="&#xae;" horiz-adv-x="945" 
d="M249 26.5q-93 46.5 -141 130.5t-48 194q0 111 48 199.5t141.5 139t223.5 50.5q131 0 224 -50.5t140.5 -139t47.5 -199.5t-47.5 -194.5t-140 -130t-224.5 -46.5q-131 0 -224 46.5zM713.5 135.5q85.5 75.5 85.5 215.5q0 94 -38.5 163.5t-112 107.5t-175.5 38t-175.5 -38
t-112.5 -108t-39 -163q0 -140 86 -215.5t241 -75.5t240.5 75.5zM316 192v327h197q74 0 109.5 -32t35.5 -90q0 -35 -18.5 -64.5t-54.5 -44.5l68 -96h-99l-59 84h-95v-84h-84zM517 356q30 0 43.5 9t13.5 32t-13.5 32.5t-43.5 9.5h-117v-83h117z" />
    <glyph glyph-name="macron" unicode="&#xaf;" horiz-adv-x="589" 
d="M60 700v100h469v-100h-469z" />
    <glyph glyph-name="degree" unicode="&#xb0;" horiz-adv-x="711" 
d="M128.5 300.5q-68.5 71.5 -68.5 184.5q0 112 68.5 183.5t226.5 71.5q159 0 227.5 -71.5t68.5 -183.5q0 -113 -68.5 -184.5t-227.5 -71.5q-158 0 -226.5 71.5zM444.5 401.5q26.5 32.5 26.5 84.5q0 114 -116 114q-62 0 -88.5 -31.5t-26.5 -82.5q0 -52 26.5 -84.5t88.5 -32.5
q63 0 89.5 32.5z" />
    <glyph glyph-name="plusminus" unicode="&#xb1;" horiz-adv-x="920" 
d="M565 710v-155h295v-170h-295v-155h-210v155h-295v170h295v155h210zM860 15h-800v170h800v-170z" />
    <glyph glyph-name="acute" unicode="&#xb4;" horiz-adv-x="509" 
d="M60 677v103l389 80v-103z" />
    <glyph glyph-name="paragraph" unicode="&#xb6;" horiz-adv-x="947" 
d="M579 800v-950h-210v470q-92 0 -154 12t-108.5 64.5t-46.5 163.5t46.5 163.5t108.5 64.5t154 12h210zM677 -150v950h210v-950h-210z" />
    <glyph glyph-name="periodcentered" unicode="&#xb7;" horiz-adv-x="360" 
d="M60 230v180h240v-180h-240z" />
    <glyph glyph-name="cedilla" unicode="&#xb8;" horiz-adv-x="436" 
d="M348 -67.5q28 -20.5 28 -58.5q0 -57 -60 -84t-155 -27q-41 0 -101 7v90q86 -12 117 -12q59 0 59 28q0 11 -8.5 17t-22.5 6q-21 0 -43 -15l-69 21l19 95h98l-15 -59q33 12 77 12q48 0 76 -20.5z" />
    <glyph glyph-name="guillemotright" unicode="&#xbb;" horiz-adv-x="1078" 
d="M60 600h278l260 -300l-260 -300h-278l260 300zM480 600h278l260 -300l-260 -300h-278l260 300z" />
    <glyph glyph-name="questiondown" unicode="&#xbf;" horiz-adv-x="864" 
d="M573 600v-180h-240v180h240zM573 360q0 -62 -25 -103t-59 -63t-87 -46q-43 -19 -62.5 -32.5t-19.5 -34.5q0 -23 23 -37t74 -14q70 0 108.5 26.5t38.5 88.5h240q-7 -145 -111.5 -215t-285.5 -70q-172 0 -259.5 44.5t-87.5 136.5q0 47 20 79.5t49.5 52.5t76.5 44
q43 23 68 39.5t42 42t17 61.5h240z" />
    <glyph glyph-name="Agrave" unicode="&#xc0;" horiz-adv-x="1146" 
d="M1096 0h-266l-59 126h-396l-59 -126h-266l345 720h356zM573 548l-114 -242h228zM378 980l389 -80v-103l-389 80v103z" />
    <glyph glyph-name="Aacute" unicode="&#xc1;" horiz-adv-x="1146" 
d="M1096 0h-266l-59 126h-396l-59 -126h-266l345 720h356zM573 548l-114 -242h228zM378 797v103l389 80v-103z" />
    <glyph glyph-name="Acircumflex" unicode="&#xc2;" horiz-adv-x="1146" 
d="M1096 0h-266l-59 126h-396l-59 -126h-266l345 720h356zM573 548l-114 -242h228zM366 900l207 80l207 -80v-107l-207 80l-207 -80v107z" />
    <glyph glyph-name="Atilde" unicode="&#xc3;" horiz-adv-x="1146" 
d="M1096 0h-266l-59 126h-396l-59 -126h-266l345 720h356zM573 548l-114 -242h228zM263 780q0 96 36.5 158t123.5 62q46 0 82 -14t82 -40q33 -19 54 -27.5t42 -8.5q34 0 47 21.5t13 68.5h140q0 -96 -36.5 -158t-123.5 -62q-46 0 -82 14t-82 40q-33 19 -54 27.5t-42 8.5
q-34 0 -47 -21.5t-13 -68.5h-140z" />
    <glyph glyph-name="Adieresis" unicode="&#xc4;" horiz-adv-x="1146" 
d="M1096 0h-266l-59 126h-396l-59 -126h-266l345 720h356zM573 548l-114 -242h228zM353 820v100h180v-100h-180zM613 820v100h180v-100h-180z" />
    <glyph glyph-name="Aring" unicode="&#xc5;" horiz-adv-x="1146" 
d="M1096 0h-266l-59 126h-396l-59 -126h-266l345 720h356zM573 548l-114 -242h228zM405.5 813.5q-52.5 33.5 -52.5 98.5t52.5 98.5t167.5 33.5t167.5 -33.5t52.5 -98.5t-52.5 -98.5t-167.5 -33.5t-167.5 33.5zM646.5 872q26.5 12 26.5 40t-26.5 40t-73.5 12t-73.5 -12
t-26.5 -40t26.5 -40t73.5 -12t73.5 12z" />
    <glyph glyph-name="AE" unicode="&#xc6;" horiz-adv-x="1454" 
d="M1404 720v-190h-490v-75h470v-190h-470v-75h490v-190h-740v125h-302l-52 -125h-260l300 720h1054zM531 530l-94 -225h227v225h-133z" />
    <glyph glyph-name="Ccedilla" unicode="&#xc7;" horiz-adv-x="977" 
d="M609 220q43 30 52 71h266q-15 -147 -122 -226.5t-293 -84.5l-12 -49q33 12 77 12q48 0 76 -20.5t28 -58.5q0 -57 -60 -84t-155 -27q-41 0 -101 7v90q86 -12 117 -12q59 0 59 28q0 11 -8.5 17t-22.5 6q-21 0 -43 -15l-69 21l18 88q-177 17 -271.5 112.5t-94.5 265.5
q0 187 114.5 283t325.5 96q196 0 308.5 -79.5t128.5 -229.5h-266q-9 40 -52 69.5t-119 29.5q-92 0 -136 -46.5t-44 -122.5q0 -77 44 -124t136 -47q76 0 119 30z" />
    <glyph glyph-name="Egrave" unicode="&#xc8;" horiz-adv-x="860" 
d="M800 720v-190h-490v-75h470v-190h-470v-75h490v-190h-740v720h740zM265 980l389 -80v-103l-389 80v103z" />
    <glyph glyph-name="Eacute" unicode="&#xc9;" horiz-adv-x="860" 
d="M800 720v-190h-490v-75h470v-190h-470v-75h490v-190h-740v720h740zM265 797v103l389 80v-103z" />
    <glyph glyph-name="Ecircumflex" unicode="&#xca;" horiz-adv-x="860" 
d="M800 720v-190h-490v-75h470v-190h-470v-75h490v-190h-740v720h740zM253 900l207 80l207 -80v-107l-207 80l-207 -80v107z" />
    <glyph glyph-name="Edieresis" unicode="&#xcb;" horiz-adv-x="860" 
d="M800 720v-190h-490v-75h470v-190h-470v-75h490v-190h-740v720h740zM240 820v100h180v-100h-180zM500 820v100h180v-100h-180z" />
    <glyph glyph-name="Igrave" unicode="&#xcc;" horiz-adv-x="370" 
d="M60 720h250v-720h-250v720zM-10 980l389 -80v-103l-389 80v103z" />
    <glyph glyph-name="Iacute" unicode="&#xcd;" horiz-adv-x="370" 
d="M60 720h250v-720h-250v720zM-10 797v103l389 80v-103z" />
    <glyph glyph-name="Icircumflex" unicode="&#xce;" horiz-adv-x="370" 
d="M60 720h250v-720h-250v720zM-22 900l207 80l207 -80v-107l-207 80l-207 -80v107z" />
    <glyph glyph-name="Idieresis" unicode="&#xcf;" horiz-adv-x="370" 
d="M60 720h250v-720h-250v720zM-35 820v100h180v-100h-180zM225 820v100h180v-100h-180z" />
    <glyph glyph-name="Eth" unicode="&#xd0;" horiz-adv-x="988" 
d="M772.5 680.5q74.5 -39.5 120 -120.5t45.5 -200t-45.5 -200t-120 -120.5t-162.5 -39.5h-520v330h-80v60h80v330h520q88 0 162.5 -39.5zM510 210q52 0 86 7.5t58 40t24 102.5t-24 102.5t-58 40t-86 7.5h-170v-120h150v-60h-150v-120h170z" />
    <glyph glyph-name="Ntilde" unicode="&#xd1;" horiz-adv-x="1082" 
d="M772 244v476h250v-720h-370l-342 476v-476h-250v720h370zM231 780q0 96 36.5 158t123.5 62q46 0 82 -14t82 -40q33 -19 54 -27.5t42 -8.5q34 0 47 21.5t13 68.5h140q0 -96 -36.5 -158t-123.5 -62q-46 0 -82 14t-82 40q-33 19 -54 27.5t-42 8.5q-34 0 -47 -21.5t-13 -68.5
h-140z" />
    <glyph glyph-name="Ograve" unicode="&#xd2;" horiz-adv-x="1040" 
d="M266 24.5q-105 44.5 -160.5 130t-55.5 206.5t55.5 206t160.5 129t254 44q148 0 253.5 -44.5t161 -129.5t55.5 -205q0 -121 -55.5 -206.5t-161 -130t-253.5 -44.5q-149 0 -254 44.5zM730 361q0 78 -47.5 123.5t-162.5 45.5t-162.5 -45.5t-47.5 -123.5q0 -171 210 -171
t210 171zM325 980l389 -80v-103l-389 80v103z" />
    <glyph glyph-name="Oacute" unicode="&#xd3;" horiz-adv-x="1040" 
d="M266 24.5q-105 44.5 -160.5 130t-55.5 206.5t55.5 206t160.5 129t254 44q148 0 253.5 -44.5t161 -129.5t55.5 -205q0 -121 -55.5 -206.5t-161 -130t-253.5 -44.5q-149 0 -254 44.5zM730 361q0 78 -47.5 123.5t-162.5 45.5t-162.5 -45.5t-47.5 -123.5q0 -171 210 -171
t210 171zM325 797v103l389 80v-103z" />
    <glyph glyph-name="Ocircumflex" unicode="&#xd4;" horiz-adv-x="1040" 
d="M266 24.5q-105 44.5 -160.5 130t-55.5 206.5t55.5 206t160.5 129t254 44q148 0 253.5 -44.5t161 -129.5t55.5 -205q0 -121 -55.5 -206.5t-161 -130t-253.5 -44.5q-149 0 -254 44.5zM730 361q0 78 -47.5 123.5t-162.5 45.5t-162.5 -45.5t-47.5 -123.5q0 -171 210 -171
t210 171zM313 900l207 80l207 -80v-107l-207 80l-207 -80v107z" />
    <glyph glyph-name="Otilde" unicode="&#xd5;" horiz-adv-x="1040" 
d="M266 24.5q-105 44.5 -160.5 130t-55.5 206.5t55.5 206t160.5 129t254 44q148 0 253.5 -44.5t161 -129.5t55.5 -205q0 -121 -55.5 -206.5t-161 -130t-253.5 -44.5q-149 0 -254 44.5zM730 361q0 78 -47.5 123.5t-162.5 45.5t-162.5 -45.5t-47.5 -123.5q0 -171 210 -171
t210 171zM210 780q0 96 36.5 158t123.5 62q46 0 82 -14t82 -40q33 -19 54 -27.5t42 -8.5q34 0 47 21.5t13 68.5h140q0 -96 -36.5 -158t-123.5 -62q-46 0 -82 14t-82 40q-33 19 -54 27.5t-42 8.5q-34 0 -47 -21.5t-13 -68.5h-140z" />
    <glyph glyph-name="Odieresis" unicode="&#xd6;" horiz-adv-x="1040" 
d="M266 24.5q-105 44.5 -160.5 130t-55.5 206.5t55.5 206t160.5 129t254 44q148 0 253.5 -44.5t161 -129.5t55.5 -205q0 -121 -55.5 -206.5t-161 -130t-253.5 -44.5q-149 0 -254 44.5zM730 361q0 78 -47.5 123.5t-162.5 45.5t-162.5 -45.5t-47.5 -123.5q0 -171 210 -171
t210 171zM300 820v100h180v-100h-180zM560 820v100h180v-100h-180z" />
    <glyph glyph-name="multiply" unicode="&#xd7;" horiz-adv-x="899" 
d="M619 331l220 -127l-85 -147l-304 176l-305 -176l-85 147l220 127l-219 126l85 147l304 -175l303 175l85 -147z" />
    <glyph glyph-name="Oslash" unicode="&#xd8;" horiz-adv-x="1040" 
d="M646 731q165 -26 254.5 -121.5t89.5 -248.5q0 -121 -55.5 -206.5t-161 -130t-253.5 -44.5h-4l-27 -152h-119l28 161q-167 25 -257.5 121t-90.5 251q0 121 55.5 206t160.5 129t254 44h9l23 132h119zM435 199l57 330q-182 -10 -182 -168q0 -132 125 -162zM552 191
q178 13 178 170q0 129 -120 159z" />
    <glyph glyph-name="Ugrave" unicode="&#xd9;" horiz-adv-x="1000" 
d="M940 351q0 -185 -106.5 -278t-333.5 -93q-228 0 -334 92.5t-106 278.5v369h250v-359q0 -75 42.5 -123t147.5 -48t147.5 48.5t42.5 122.5v359h250v-369zM305 980l389 -80v-103l-389 80v103z" />
    <glyph glyph-name="Uacute" unicode="&#xda;" horiz-adv-x="1000" 
d="M940 351q0 -185 -106.5 -278t-333.5 -93q-228 0 -334 92.5t-106 278.5v369h250v-359q0 -75 42.5 -123t147.5 -48t147.5 48.5t42.5 122.5v359h250v-369zM305 797v103l389 80v-103z" />
    <glyph glyph-name="Ucircumflex" unicode="&#xdb;" horiz-adv-x="1000" 
d="M940 351q0 -185 -106.5 -278t-333.5 -93q-228 0 -334 92.5t-106 278.5v369h250v-359q0 -75 42.5 -123t147.5 -48t147.5 48.5t42.5 122.5v359h250v-369zM293 900l207 80l207 -80v-107l-207 80l-207 -80v107z" />
    <glyph glyph-name="Udieresis" unicode="&#xdc;" horiz-adv-x="1000" 
d="M940 351q0 -185 -106.5 -278t-333.5 -93q-228 0 -334 92.5t-106 278.5v369h250v-359q0 -75 42.5 -123t147.5 -48t147.5 48.5t42.5 122.5v359h250v-369zM280 820v100h180v-100h-180zM540 820v100h180v-100h-180z" />
    <glyph glyph-name="Yacute" unicode="&#xdd;" horiz-adv-x="1124" 
d="M562 450l202 270h310l-387 -480v-240h-250v240l-387 480h310zM367 797v103l389 80v-103z" />
    <glyph glyph-name="Thorn" unicode="&#xde;" horiz-adv-x="958" 
d="M620 630q89 0 154 -32t99.5 -91.5t34.5 -139.5t-34.5 -139.5t-99.5 -91.5t-154 -32h-310v-104h-250v720h250v-90h310zM560 314q30 0 47.5 2.5t29 14t11.5 36.5t-11.5 36.5t-29 14t-47.5 2.5h-250v-106h250z" />
    <glyph glyph-name="germandbls" unicode="&#xdf;" horiz-adv-x="904" 
d="M801 324q53 -41 53 -124q0 -88 -47.5 -130.5t-143 -56t-276.5 -13.5v180q101 0 147 4.5t63 18t17 42.5t-17 42.5t-63 18t-147 4.5v120q56 0 86.5 4.5t45.5 17.5t15 40q0 34 -29 51t-78 17q-64 0 -100.5 -28t-36.5 -107v-425h-230v405q0 133 48.5 206.5t130 101
t195.5 27.5q340 0 340 -205q0 -113 -125 -156q99 -14 152 -55z" />
    <glyph glyph-name="agrave" unicode="&#xe0;" horiz-adv-x="938" 
d="M724.5 589q81.5 -31 122 -99.5t41.5 -182.5v-307h-230v80q-75 -46 -165.5 -68t-175.5 -22q-127 0 -202 45t-75 146q0 112 99 158.5t246 46.5q127 0 273 -30q-4 58 -51.5 81t-134.5 23q-79 0 -160.5 -11.5t-190.5 -36.5l-32 157q229 51 426 51q128 0 209.5 -31zM658 180
v46q-140 20 -239 20q-76 0 -107.5 -11t-31.5 -38q0 -26 26 -36.5t90 -10.5q82 0 262 30zM289 860l389 -80v-103l-389 80v103z" />
    <glyph glyph-name="aacute" unicode="&#xe1;" horiz-adv-x="938" 
d="M724.5 589q81.5 -31 122 -99.5t41.5 -182.5v-307h-230v80q-75 -46 -165.5 -68t-175.5 -22q-127 0 -202 45t-75 146q0 112 99 158.5t246 46.5q127 0 273 -30q-4 58 -51.5 81t-134.5 23q-79 0 -160.5 -11.5t-190.5 -36.5l-32 157q229 51 426 51q128 0 209.5 -31zM658 180
v46q-140 20 -239 20q-76 0 -107.5 -11t-31.5 -38q0 -26 26 -36.5t90 -10.5q82 0 262 30zM289 677v103l389 80v-103z" />
    <glyph glyph-name="acircumflex" unicode="&#xe2;" horiz-adv-x="938" 
d="M724.5 589q81.5 -31 122 -99.5t41.5 -182.5v-307h-230v80q-75 -46 -165.5 -68t-175.5 -22q-127 0 -202 45t-75 146q0 112 99 158.5t246 46.5q127 0 273 -30q-4 58 -51.5 81t-134.5 23q-79 0 -160.5 -11.5t-190.5 -36.5l-32 157q229 51 426 51q128 0 209.5 -31zM658 180
v46q-140 20 -239 20q-76 0 -107.5 -11t-31.5 -38q0 -26 26 -36.5t90 -10.5q82 0 262 30zM277 780l207 80l207 -80v-107l-207 80l-207 -80v107z" />
    <glyph glyph-name="atilde" unicode="&#xe3;" horiz-adv-x="938" 
d="M724.5 589q81.5 -31 122 -99.5t41.5 -182.5v-307h-230v80q-75 -46 -165.5 -68t-175.5 -22q-127 0 -202 45t-75 146q0 112 99 158.5t246 46.5q127 0 273 -30q-4 58 -51.5 81t-134.5 23q-79 0 -160.5 -11.5t-190.5 -36.5l-32 157q229 51 426 51q128 0 209.5 -31zM658 180
v46q-140 20 -239 20q-76 0 -107.5 -11t-31.5 -38q0 -26 26 -36.5t90 -10.5q82 0 262 30zM174 660q0 96 36.5 158t123.5 62q46 0 82 -14t82 -40q33 -19 54 -27.5t42 -8.5q34 0 47 21.5t13 68.5h140q0 -96 -36.5 -158t-123.5 -62q-46 0 -82 14t-82 40q-33 19 -54 27.5t-42 8.5
q-34 0 -47 -21.5t-13 -68.5h-140z" />
    <glyph glyph-name="adieresis" unicode="&#xe4;" horiz-adv-x="938" 
d="M724.5 589q81.5 -31 122 -99.5t41.5 -182.5v-307h-230v80q-75 -46 -165.5 -68t-175.5 -22q-127 0 -202 45t-75 146q0 112 99 158.5t246 46.5q127 0 273 -30q-4 58 -51.5 81t-134.5 23q-79 0 -160.5 -11.5t-190.5 -36.5l-32 157q229 51 426 51q128 0 209.5 -31zM658 180
v46q-140 20 -239 20q-76 0 -107.5 -11t-31.5 -38q0 -26 26 -36.5t90 -10.5q82 0 262 30zM264 700v100h180v-100h-180zM524 700v100h180v-100h-180z" />
    <glyph glyph-name="aring" unicode="&#xe5;" horiz-adv-x="938" 
d="M724.5 589q81.5 -31 122 -99.5t41.5 -182.5v-307h-230v80q-75 -46 -165.5 -68t-175.5 -22q-127 0 -202 45t-75 146q0 112 99 158.5t246 46.5q127 0 273 -30q-4 58 -51.5 81t-134.5 23q-79 0 -160.5 -11.5t-190.5 -36.5l-32 157q229 51 426 51q128 0 209.5 -31zM658 180
v46q-140 20 -239 20q-76 0 -107.5 -11t-31.5 -38q0 -26 26 -36.5t90 -10.5q82 0 262 30zM316.5 693.5q-52.5 33.5 -52.5 98.5t52.5 98.5t167.5 33.5t167.5 -33.5t52.5 -98.5t-52.5 -98.5t-167.5 -33.5t-167.5 33.5zM557.5 752q26.5 12 26.5 40t-26.5 40t-73.5 12t-73.5 -12
t-26.5 -40t26.5 -40t73.5 -12t73.5 12z" />
    <glyph glyph-name="ae" unicode="&#xe6;" horiz-adv-x="1511" 
d="M1183.5 166.5q41.5 16.5 57.5 48.5h225q-31 -116 -130.5 -175.5t-282.5 -59.5q-118 0 -207 27t-144 80q-65 -48 -160.5 -72.5t-213.5 -24.5q-134 0 -211 43t-77 136q0 107 106.5 151.5t268.5 44.5h183q0 43 -43 59t-113 16q-63 0 -125.5 -12t-149.5 -39l-68 150
q79 35 171.5 53t179.5 18t156.5 -20.5t117.5 -59.5q56 45 138 67.5t182 22.5q199 0 313 -90t114 -268h-621q11 -62 63.5 -87t148.5 -25q80 0 121.5 16.5zM922 448q-46 -22 -64 -72h375q-19 50 -65.5 72t-123.5 22q-76 0 -122 -22zM598 244h-159q-83 0 -121 -13t-38 -41
q0 -24 20.5 -32t68.5 -8q66 0 126 9t103 27v58z" />
    <glyph glyph-name="ccedilla" unicode="&#xe7;" horiz-adv-x="934" 
d="M659 245h235q-22 -128 -122 -194t-274 -71l-10 -39q33 12 77 12q48 0 76 -20.5t28 -58.5q0 -57 -60 -84t-155 -27q-41 0 -101 7v90q86 -12 117 -12q59 0 59 28q0 11 -8.5 17t-22.5 6q-21 0 -43 -15l-69 21l15 77q-176 13 -268.5 93.5t-92.5 224.5q0 158 110 239t318 81
q187 0 295.5 -66t130.5 -199h-235q-32 85 -191 85q-99 0 -148.5 -34t-49.5 -106t49.5 -106t148.5 -34q159 0 191 85z" />
    <glyph glyph-name="egrave" unicode="&#xe8;" horiz-adv-x="934" 
d="M606.5 166.5q41.5 16.5 57.5 48.5h225q-31 -116 -130.5 -175.5t-282.5 -59.5q-206 0 -321 82t-115 238q0 104 54 175.5t150 108t223 36.5q199 0 313 -90t114 -268h-621q11 -62 63.5 -87t148.5 -25q80 0 121.5 16.5zM345 448q-46 -22 -64 -72h375q-19 50 -65.5 72
t-123.5 22q-76 0 -122 -22zM272 860l389 -80v-103l-389 80v103z" />
    <glyph glyph-name="eacute" unicode="&#xe9;" horiz-adv-x="934" 
d="M606.5 166.5q41.5 16.5 57.5 48.5h225q-31 -116 -130.5 -175.5t-282.5 -59.5q-206 0 -321 82t-115 238q0 104 54 175.5t150 108t223 36.5q199 0 313 -90t114 -268h-621q11 -62 63.5 -87t148.5 -25q80 0 121.5 16.5zM345 448q-46 -22 -64 -72h375q-19 50 -65.5 72
t-123.5 22q-76 0 -122 -22zM272 677v103l389 80v-103z" />
    <glyph glyph-name="ecircumflex" unicode="&#xea;" horiz-adv-x="934" 
d="M606.5 166.5q41.5 16.5 57.5 48.5h225q-31 -116 -130.5 -175.5t-282.5 -59.5q-206 0 -321 82t-115 238q0 104 54 175.5t150 108t223 36.5q199 0 313 -90t114 -268h-621q11 -62 63.5 -87t148.5 -25q80 0 121.5 16.5zM345 448q-46 -22 -64 -72h375q-19 50 -65.5 72
t-123.5 22q-76 0 -122 -22zM260 780l207 80l207 -80v-107l-207 80l-207 -80v107z" />
    <glyph glyph-name="edieresis" unicode="&#xeb;" horiz-adv-x="934" 
d="M606.5 166.5q41.5 16.5 57.5 48.5h225q-31 -116 -130.5 -175.5t-282.5 -59.5q-206 0 -321 82t-115 238q0 104 54 175.5t150 108t223 36.5q199 0 313 -90t114 -268h-621q11 -62 63.5 -87t148.5 -25q80 0 121.5 16.5zM345 448q-46 -22 -64 -72h375q-19 50 -65.5 72
t-123.5 22q-76 0 -122 -22zM247 700v100h180v-100h-180zM507 700v100h180v-100h-180z" />
    <glyph glyph-name="igrave" unicode="&#xec;" horiz-adv-x="350" 
d="M60 0v600h230v-600h-230zM-20 860l389 -80v-103l-389 80v103z" />
    <glyph glyph-name="iacute" unicode="&#xed;" horiz-adv-x="350" 
d="M60 0v600h230v-600h-230zM-20 677v103l389 80v-103z" />
    <glyph glyph-name="icircumflex" unicode="&#xee;" horiz-adv-x="350" 
d="M60 0v600h230v-600h-230zM-32 780l207 80l207 -80v-107l-207 80l-207 -80v107z" />
    <glyph glyph-name="idieresis" unicode="&#xef;" horiz-adv-x="350" 
d="M60 0v600h230v-600h-230zM-45 700v100h180v-100h-180zM215 700v100h180v-100h-180z" />
    <glyph glyph-name="ntilde" unicode="&#xf1;" horiz-adv-x="999" 
d="M939 321v-321h-230v235q0 102 -42 148.5t-146 46.5q-112 0 -171.5 -49t-59.5 -146v-235h-230v600h230v-140q60 76 142.5 118t201.5 42q305 0 305 -299zM190 660q0 96 36.5 158t123.5 62q46 0 82 -14t82 -40q33 -19 54 -27.5t42 -8.5q34 0 47 21.5t13 68.5h140
q0 -96 -36.5 -158t-123.5 -62q-46 0 -82 14t-82 40q-33 19 -54 27.5t-42 8.5q-34 0 -47 -21.5t-13 -68.5h-140z" />
    <glyph glyph-name="ograve" unicode="&#xf2;" 
d="M149 64q-109 84 -109 236t109 236t319 84t319 -84t109 -236t-109 -236t-319 -84t-319 84zM610 193.5q46 33.5 46 106.5t-46 106.5t-142 33.5t-142 -33.5t-46 -106.5t46 -106.5t142 -33.5t142 33.5zM273 860l389 -80v-103l-389 80v103z" />
    <glyph glyph-name="oacute" unicode="&#xf3;" 
d="M149 64q-109 84 -109 236t109 236t319 84t319 -84t109 -236t-109 -236t-319 -84t-319 84zM610 193.5q46 33.5 46 106.5t-46 106.5t-142 33.5t-142 -33.5t-46 -106.5t46 -106.5t142 -33.5t142 33.5zM273 677v103l389 80v-103z" />
    <glyph glyph-name="ocircumflex" unicode="&#xf4;" 
d="M149 64q-109 84 -109 236t109 236t319 84t319 -84t109 -236t-109 -236t-319 -84t-319 84zM610 193.5q46 33.5 46 106.5t-46 106.5t-142 33.5t-142 -33.5t-46 -106.5t46 -106.5t142 -33.5t142 33.5zM261 780l207 80l207 -80v-107l-207 80l-207 -80v107z" />
    <glyph glyph-name="otilde" unicode="&#xf5;" 
d="M149 64q-109 84 -109 236t109 236t319 84t319 -84t109 -236t-109 -236t-319 -84t-319 84zM610 193.5q46 33.5 46 106.5t-46 106.5t-142 33.5t-142 -33.5t-46 -106.5t46 -106.5t142 -33.5t142 33.5zM158 660q0 96 36.5 158t123.5 62q46 0 82 -14t82 -40q33 -19 54 -27.5
t42 -8.5q34 0 47 21.5t13 68.5h140q0 -96 -36.5 -158t-123.5 -62q-46 0 -82 14t-82 40q-33 19 -54 27.5t-42 8.5q-34 0 -47 -21.5t-13 -68.5h-140z" />
    <glyph glyph-name="odieresis" unicode="&#xf6;" 
d="M149 64q-109 84 -109 236t109 236t319 84t319 -84t109 -236t-109 -236t-319 -84t-319 84zM610 193.5q46 33.5 46 106.5t-46 106.5t-142 33.5t-142 -33.5t-46 -106.5t46 -106.5t142 -33.5t142 33.5zM248 700v100h180v-100h-180zM508 700v100h180v-100h-180z" />
    <glyph glyph-name="divide" unicode="&#xf7;" horiz-adv-x="920" 
d="M364 500v144h192v-144h-192zM60 237v170h800v-170h-800zM364 0v144h192v-144h-192z" />
    <glyph glyph-name="oslash" unicode="&#xf8;" 
d="M610 608q141 -26 213.5 -105.5t72.5 -202.5q0 -152 -109 -236t-319 -84h-8l-28 -115h-136l30 127q-141 26 -213.5 105.5t-72.5 202.5q0 152 109 236t319 84h8l28 115h136zM302 217.5q22 -31.5 67 -45.5l64 267q-78 -6 -115.5 -39.5t-37.5 -99.5q0 -51 22 -82.5zM503 161
q78 6 115.5 39.5t37.5 99.5q0 51 -22 82.5t-67 45.5z" />
    <glyph glyph-name="ugrave" unicode="&#xf9;" horiz-adv-x="999" 
d="M709 600h230v-600h-230v140q-60 -76 -142.5 -118t-201.5 -42q-305 0 -305 299v321h230v-235q0 -102 42 -148.5t146 -46.5q112 0 171.5 49t59.5 146v235zM305 860l389 -80v-103l-389 80v103z" />
    <glyph glyph-name="uacute" unicode="&#xfa;" horiz-adv-x="999" 
d="M709 600h230v-600h-230v140q-60 -76 -142.5 -118t-201.5 -42q-305 0 -305 299v321h230v-235q0 -102 42 -148.5t146 -46.5q112 0 171.5 49t59.5 146v235zM305 677v103l389 80v-103z" />
    <glyph glyph-name="ucircumflex" unicode="&#xfb;" horiz-adv-x="999" 
d="M709 600h230v-600h-230v140q-60 -76 -142.5 -118t-201.5 -42q-305 0 -305 299v321h230v-235q0 -102 42 -148.5t146 -46.5q112 0 171.5 49t59.5 146v235zM293 780l207 80l207 -80v-107l-207 80l-207 -80v107z" />
    <glyph glyph-name="udieresis" unicode="&#xfc;" horiz-adv-x="999" 
d="M709 600h230v-600h-230v140q-60 -76 -142.5 -118t-201.5 -42q-305 0 -305 299v321h230v-235q0 -102 42 -148.5t146 -46.5q112 0 171.5 49t59.5 146v235zM280 700v100h180v-100h-180zM540 700v100h180v-100h-180z" />
    <glyph glyph-name="yacute" unicode="&#xfd;" horiz-adv-x="989" 
d="M726 600h233l-282 -585q-45 -93 -92.5 -152.5t-112.5 -91t-155 -31.5q-49 0 -109 9t-118 26v175q134 -30 193 -30q43 0 67.5 5t44 22t40.5 53h-108l-287 600h233l226 -472zM296 677v103l389 80v-103z" />
    <glyph glyph-name="thorn" unicode="&#xfe;" 
d="M791.5 539.5q84.5 -70.5 84.5 -239.5t-84.5 -239.5t-223.5 -70.5q-86 0 -154.5 27.5t-113.5 78.5v-256h-240v960h240v-296q45 51 113.5 78.5t154.5 27.5q139 0 223.5 -70.5zM595 213.5q41 23.5 41 86.5t-41 86.5t-127 23.5t-127 -23.5t-41 -86.5t41 -86.5t127 -23.5
t127 23.5z" />
    <glyph glyph-name="ydieresis" unicode="&#xff;" horiz-adv-x="989" 
d="M726 600h233l-282 -585q-45 -93 -92.5 -152.5t-112.5 -91t-155 -31.5q-49 0 -109 9t-118 26v175q134 -30 193 -30q43 0 67.5 5t44 22t40.5 53h-108l-287 600h233l226 -472zM271 700v100h180v-100h-180zM531 700v100h180v-100h-180z" />
    <glyph glyph-name="Amacron" unicode="&#x100;" horiz-adv-x="1146" 
d="M1096 0h-266l-59 126h-396l-59 -126h-266l345 720h356zM573 548l-114 -242h228zM338 820v100h469v-100h-469z" />
    <glyph glyph-name="amacron" unicode="&#x101;" horiz-adv-x="938" 
d="M724.5 589q81.5 -31 122 -99.5t41.5 -182.5v-307h-230v80q-75 -46 -165.5 -68t-175.5 -22q-127 0 -202 45t-75 146q0 112 99 158.5t246 46.5q127 0 273 -30q-4 58 -51.5 81t-134.5 23q-79 0 -160.5 -11.5t-190.5 -36.5l-32 157q229 51 426 51q128 0 209.5 -31zM658 180
v46q-140 20 -239 20q-76 0 -107.5 -11t-31.5 -38q0 -26 26 -36.5t90 -10.5q82 0 262 30zM249 700v100h469v-100h-469z" />
    <glyph glyph-name="Abreve" unicode="&#x102;" horiz-adv-x="1146" 
d="M1096 0h-266l-59 126h-396l-59 -126h-266l345 720h356zM573 548l-114 -242h228zM466 980q0 -45 26 -67.5t81 -22.5t81 22.5t26 67.5h120q0 -99 -62.5 -144.5t-164.5 -45.5t-164.5 45.5t-62.5 144.5h120z" />
    <glyph glyph-name="abreve" unicode="&#x103;" horiz-adv-x="938" 
d="M724.5 589q81.5 -31 122 -99.5t41.5 -182.5v-307h-230v80q-75 -46 -165.5 -68t-175.5 -22q-127 0 -202 45t-75 146q0 112 99 158.5t246 46.5q127 0 273 -30q-4 58 -51.5 81t-134.5 23q-79 0 -160.5 -11.5t-190.5 -36.5l-32 157q229 51 426 51q128 0 209.5 -31zM658 180
v46q-140 20 -239 20q-76 0 -107.5 -11t-31.5 -38q0 -26 26 -36.5t90 -10.5q82 0 262 30zM377 860q0 -45 26 -67.5t81 -22.5t81 22.5t26 67.5h120q0 -99 -62.5 -144.5t-164.5 -45.5t-164.5 45.5t-62.5 144.5h120z" />
    <glyph glyph-name="Aogonek" unicode="&#x104;" horiz-adv-x="1146" 
d="M952 -94.5q18 -10.5 49 -13t95 -2.5v-140q-169 0 -263 33.5t-94 114.5t127 102h-36l-59 126h-396l-59 -126h-266l345 720h356l345 -720h-30q-65 0 -98.5 -18t-33.5 -43q0 -23 18 -33.5zM573 548l-114 -242h228z" />
    <glyph glyph-name="aogonek" unicode="&#x105;" horiz-adv-x="948" 
d="M754 -94.5q18 -10.5 49 -13t95 -2.5v-140q-173 0 -265 28.5t-92 103.5q0 43 30.5 72.5t96.5 45.5h-10v80q-75 -46 -165.5 -68t-175.5 -22q-127 0 -202 45t-75 146q0 112 99 158.5t246 46.5q127 0 273 -30q-4 58 -51.5 81t-134.5 23q-79 0 -160.5 -11.5t-190.5 -36.5
l-32 157q229 51 426 51q128 0 209.5 -31t122 -99.5t41.5 -182.5v-307h-20q-73 -5 -102.5 -20.5t-29.5 -40.5q0 -23 18 -33.5zM658 180v46q-140 20 -239 20q-76 0 -107.5 -11t-31.5 -38q0 -26 26 -36.5t90 -10.5q82 0 262 30z" />
    <glyph glyph-name="Cacute" unicode="&#x106;" horiz-adv-x="977" 
d="M164.5 644q114.5 96 325.5 96q196 0 308.5 -79.5t128.5 -229.5h-266q-9 40 -52 69.5t-119 29.5q-92 0 -136 -46.5t-44 -122.5q0 -77 44 -124t136 -47q76 0 119 30t52 71h266q-16 -151 -128.5 -231t-308.5 -80q-211 0 -325.5 96.5t-114.5 284.5q0 187 114.5 283zM295 797
v103l389 80v-103z" />
    <glyph glyph-name="cacute" unicode="&#x107;" horiz-adv-x="934" 
d="M150 539q110 81 318 81q187 0 295.5 -66t130.5 -199h-235q-32 85 -191 85q-99 0 -148.5 -34t-49.5 -106t49.5 -106t148.5 -34q159 0 191 85h235q-22 -133 -130.5 -199t-295.5 -66q-208 0 -318 81t-110 239t110 239zM272 677v103l389 80v-103z" />
    <glyph glyph-name="Cdotaccent" unicode="&#x10a;" horiz-adv-x="977" 
d="M164.5 644q114.5 96 325.5 96q196 0 308.5 -79.5t128.5 -229.5h-266q-9 40 -52 69.5t-119 29.5q-92 0 -136 -46.5t-44 -122.5q0 -77 44 -124t136 -47q76 0 119 30t52 71h266q-16 -151 -128.5 -231t-308.5 -80q-211 0 -325.5 96.5t-114.5 284.5q0 187 114.5 283zM390 820
v100h200v-100h-200z" />
    <glyph glyph-name="cdotaccent" unicode="&#x10b;" horiz-adv-x="934" 
d="M150 539q110 81 318 81q187 0 295.5 -66t130.5 -199h-235q-32 85 -191 85q-99 0 -148.5 -34t-49.5 -106t49.5 -106t148.5 -34q159 0 191 85h235q-22 -133 -130.5 -199t-295.5 -66q-208 0 -318 81t-110 239t110 239zM367 700v100h200v-100h-200z" />
    <glyph glyph-name="Ccaron" unicode="&#x10c;" horiz-adv-x="977" 
d="M164.5 644q114.5 96 325.5 96q196 0 308.5 -79.5t128.5 -229.5h-266q-9 40 -52 69.5t-119 29.5q-92 0 -136 -46.5t-44 -122.5q0 -77 44 -124t136 -47q76 0 119 30t52 71h266q-16 -151 -128.5 -231t-308.5 -80q-211 0 -325.5 96.5t-114.5 284.5q0 187 114.5 283zM283 969
l207 -80l207 80v-107l-207 -80l-207 80v107z" />
    <glyph glyph-name="ccaron" unicode="&#x10d;" horiz-adv-x="934" 
d="M150 539q110 81 318 81q187 0 295.5 -66t130.5 -199h-235q-32 85 -191 85q-99 0 -148.5 -34t-49.5 -106t49.5 -106t148.5 -34q159 0 191 85h235q-22 -133 -130.5 -199t-295.5 -66q-208 0 -318 81t-110 239t110 239zM260 849l207 -80l207 80v-107l-207 -80l-207 80v107z
" />
    <glyph glyph-name="Dcaron" unicode="&#x10e;" horiz-adv-x="958" 
d="M742.5 680.5q74.5 -39.5 120 -120.5t45.5 -200t-45.5 -200t-120 -120.5t-162.5 -39.5h-520v720h520q88 0 162.5 -39.5zM480 210q52 0 86 7.5t58 40t24 102.5t-24 102.5t-58 40t-86 7.5h-170v-300h170zM207 949l207 -80l207 80v-107l-207 -80l-207 80v107z" />
    <glyph glyph-name="dcaron" unicode="&#x10f;" horiz-adv-x="1206" 
d="M646 800h230v-800h-230v107q-43 -66 -116.5 -96.5t-161.5 -30.5q-85 0 -159 31.5t-121.5 103t-47.5 185.5t47.5 185.5t121.5 103t159 31.5q88 0 161.5 -30.5t116.5 -96.5v307zM600.5 202q45.5 32 45.5 98t-45.5 98t-137.5 32t-137.5 -32t-45.5 -98t45.5 -98t137.5 -32
t137.5 32zM936 620v180h240v-180l-113 -220h-107l68 220h-88z" />
    <glyph glyph-name="Dcroat" unicode="&#x110;" horiz-adv-x="988" 
d="M772.5 680.5q74.5 -39.5 120 -120.5t45.5 -200t-45.5 -200t-120 -120.5t-162.5 -39.5h-520v330h-80v60h80v330h520q88 0 162.5 -39.5zM510 210q52 0 86 7.5t58 40t24 102.5t-24 102.5t-58 40t-86 7.5h-170v-120h150v-60h-150v-120h170z" />
    <glyph glyph-name="dcroat" unicode="&#x111;" horiz-adv-x="996" 
d="M956 750v-100h-80v-650h-230v107q-43 -66 -116.5 -96.5t-161.5 -30.5q-85 0 -159 31.5t-121.5 103t-47.5 185.5t47.5 185.5t121.5 103t159 31.5q88 0 161.5 -30.5t116.5 -96.5v157h-210v100h210v50h230v-50h80zM600.5 202q45.5 32 45.5 98t-45.5 98t-137.5 32t-137.5 -32
t-45.5 -98t45.5 -98t137.5 -32t137.5 32z" />
    <glyph glyph-name="Emacron" unicode="&#x112;" horiz-adv-x="860" 
d="M800 720v-190h-490v-75h470v-190h-470v-75h490v-190h-740v720h740zM225 820v100h469v-100h-469z" />
    <glyph glyph-name="emacron" unicode="&#x113;" horiz-adv-x="934" 
d="M606.5 166.5q41.5 16.5 57.5 48.5h225q-31 -116 -130.5 -175.5t-282.5 -59.5q-206 0 -321 82t-115 238q0 104 54 175.5t150 108t223 36.5q199 0 313 -90t114 -268h-621q11 -62 63.5 -87t148.5 -25q80 0 121.5 16.5zM345 448q-46 -22 -64 -72h375q-19 50 -65.5 72
t-123.5 22q-76 0 -122 -22zM232 700v100h469v-100h-469z" />
    <glyph glyph-name="Edotaccent" unicode="&#x116;" horiz-adv-x="860" 
d="M800 720v-190h-490v-75h470v-190h-470v-75h490v-190h-740v720h740zM360 820v100h200v-100h-200z" />
    <glyph glyph-name="edotaccent" unicode="&#x117;" horiz-adv-x="934" 
d="M606.5 166.5q41.5 16.5 57.5 48.5h225q-31 -116 -130.5 -175.5t-282.5 -59.5q-206 0 -321 82t-115 238q0 104 54 175.5t150 108t223 36.5q199 0 313 -90t114 -268h-621q11 -62 63.5 -87t148.5 -25q80 0 121.5 16.5zM345 448q-46 -22 -64 -72h375q-19 50 -65.5 72
t-123.5 22q-76 0 -122 -22zM367 700v100h200v-100h-200z" />
    <glyph glyph-name="Eogonek" unicode="&#x118;" horiz-adv-x="860" 
d="M800 530h-490v-75h470v-190h-470v-75h490v-190h-30q-73 -5 -102.5 -20.5t-29.5 -40.5q0 -23 18 -33.5t49 -13t95 -2.5v-140q-169 0 -263 33.5t-94 114.5q0 38 28.5 64t98.5 38h-510v720h740v-190z" />
    <glyph glyph-name="eogonek" unicode="&#x119;" horiz-adv-x="914" 
d="M606.5 166.5q41.5 16.5 57.5 48.5h225q-26 -97 -100.5 -155t-205.5 -74q-25 -9 -35 -17.5t-10 -20.5q0 -26 35 -32t113 -6v-140q-101 0 -162.5 9.5t-93.5 34.5t-32 73q0 56 83 93h-5q-206 0 -321 82t-115 238q0 104 54 175.5t150 108t223 36.5q199 0 313 -90t114 -268
h-621q11 -62 63.5 -87t148.5 -25q80 0 121.5 16.5zM345 448q-46 -22 -64 -72h375q-19 50 -65.5 72t-123.5 22q-76 0 -122 -22z" />
    <glyph glyph-name="Ecaron" unicode="&#x11a;" horiz-adv-x="860" 
d="M800 720v-190h-490v-75h470v-190h-470v-75h490v-190h-740v720h740zM253 969l207 -80l207 80v-107l-207 -80l-207 80v107z" />
    <glyph glyph-name="ecaron" unicode="&#x11b;" horiz-adv-x="934" 
d="M606.5 166.5q41.5 16.5 57.5 48.5h225q-31 -116 -130.5 -175.5t-282.5 -59.5q-206 0 -321 82t-115 238q0 104 54 175.5t150 108t223 36.5q199 0 313 -90t114 -268h-621q11 -62 63.5 -87t148.5 -25q80 0 121.5 16.5zM345 448q-46 -22 -64 -72h375q-19 50 -65.5 72
t-123.5 22q-76 0 -122 -22zM260 849l207 -80l207 80v-107l-207 -80l-207 80v107z" />
    <glyph glyph-name="Gbreve" unicode="&#x11e;" horiz-adv-x="977" 
d="M108 569.5q58 85.5 160 128t234 42.5q122 0 216.5 -36t149 -100.5t59.5 -147.5h-266q-9 29 -47 51.5t-110 22.5q-99 0 -146.5 -48t-47.5 -131q0 -87 50 -134t175 -47q57 0 102 9.5t90 28.5v43h-224v150h424v-321q-103 -57 -199 -78.5t-208 -21.5q-141 0 -247 43
t-164.5 128.5t-58.5 209.5q0 123 58 208.5zM392 980q0 -45 26 -67.5t81 -22.5t81 22.5t26 67.5h120q0 -99 -62.5 -144.5t-164.5 -45.5t-164.5 45.5t-62.5 144.5h120z" />
    <glyph glyph-name="gbreve" unicode="&#x11f;" 
d="M646 600h230v-537q-1 -170 -92 -246.5t-281 -76.5q-197 0 -426 51l32 172q114 -22 194.5 -32.5t156.5 -10.5q92 0 139 28.5t47 106.5v69q-43 -64 -116.5 -94t-161.5 -30q-84 0 -158.5 31t-122 100.5t-47.5 178.5t47.5 178.5t122 100.5t158.5 31q88 0 161.5 -30t116.5 -94
v104zM603 220q43 30 43 90t-43 90t-140 30t-140 -30t-43 -90t43 -90t140 -30t140 30zM351 860q0 -45 26 -67.5t81 -22.5t81 22.5t26 67.5h120q0 -99 -62.5 -144.5t-164.5 -45.5t-164.5 45.5t-62.5 144.5h120z" />
    <glyph glyph-name="Gdotaccent" unicode="&#x120;" horiz-adv-x="977" 
d="M108 569.5q58 85.5 160 128t234 42.5q122 0 216.5 -36t149 -100.5t59.5 -147.5h-266q-9 29 -47 51.5t-110 22.5q-99 0 -146.5 -48t-47.5 -131q0 -87 50 -134t175 -47q57 0 102 9.5t90 28.5v43h-224v150h424v-321q-103 -57 -199 -78.5t-208 -21.5q-141 0 -247 43
t-164.5 128.5t-58.5 209.5q0 123 58 208.5zM399 820v100h200v-100h-200z" />
    <glyph glyph-name="gdotaccent" unicode="&#x121;" 
d="M646 600h230v-537q-1 -170 -92 -246.5t-281 -76.5q-197 0 -426 51l32 172q114 -22 194.5 -32.5t156.5 -10.5q92 0 139 28.5t47 106.5v69q-43 -64 -116.5 -94t-161.5 -30q-84 0 -158.5 31t-122 100.5t-47.5 178.5t47.5 178.5t122 100.5t158.5 31q88 0 161.5 -30t116.5 -94
v104zM603 220q43 30 43 90t-43 90t-140 30t-140 -30t-43 -90t43 -90t140 -30t140 30zM358 700v100h200v-100h-200z" />
    <glyph glyph-name="uni0122" unicode="&#x122;" horiz-adv-x="977" 
d="M108 569.5q58 85.5 160 128t234 42.5q122 0 216.5 -36t149 -100.5t59.5 -147.5h-266q-9 29 -47 51.5t-110 22.5q-99 0 -146.5 -48t-47.5 -131q0 -87 50 -134t175 -47q57 0 102 9.5t90 28.5v43h-224v150h424v-321q-103 -57 -199 -78.5t-208 -21.5q-141 0 -247 43
t-164.5 128.5t-58.5 209.5q0 123 58 208.5zM419 -190v120h200v-120l-103 -110h-97l68 110h-68z" />
    <glyph glyph-name="uni0123" unicode="&#x123;" 
d="M646 600h230v-537q-1 -170 -92 -246.5t-281 -76.5q-197 0 -426 51l32 172q114 -22 194.5 -32.5t156.5 -10.5q92 0 139 28.5t47 106.5v69q-43 -64 -116.5 -94t-161.5 -30q-84 0 -158.5 31t-122 100.5t-47.5 178.5t47.5 178.5t122 100.5t158.5 31q88 0 161.5 -30t116.5 -94
v104zM603 220q43 30 43 90t-43 90t-140 30t-140 -30t-43 -90t43 -90t140 -30t140 30zM558 820v-120h-200v120l103 110h97l-68 -110h68z" />
    <glyph glyph-name="Hbar" unicode="&#x126;" horiz-adv-x="1130" 
d="M1020 640h70v-100h-70v-540h-250v255h-410v-255h-250v540h-70v100h70v80h250v-80h410v80h250v-80zM360 465h410v75h-410v-75z" />
    <glyph glyph-name="hbar" unicode="&#x127;" horiz-adv-x="1059" 
d="M999 321v-321h-230v235q0 102 -42 148.5t-146 46.5q-112 0 -171.5 -49t-59.5 -146v-235h-230v650h-80v100h80v50h230v-50h210v-100h-210v-190q60 76 142.5 118t201.5 42q305 0 305 -299z" />
    <glyph glyph-name="Imacron" unicode="&#x12a;" horiz-adv-x="370" 
d="M60 720h250v-720h-250v720zM-50 820v100h469v-100h-469z" />
    <glyph glyph-name="imacron" unicode="&#x12b;" horiz-adv-x="350" 
d="M60 0v600h230v-600h-230zM-60 700v100h469v-100h-469z" />
    <glyph glyph-name="Iogonek" unicode="&#x12e;" horiz-adv-x="377" 
d="M203 -94.5q18 -10.5 49 -13t95 -2.5v-140q-169 0 -263 33.5t-94 114.5q0 39 27.5 62.5t99.5 39.5h-60v720h250v-720h10q-73 -5 -102.5 -20.5t-29.5 -40.5q0 -23 18 -33.5z" />
    <glyph glyph-name="iogonek" unicode="&#x12f;" horiz-adv-x="360" 
d="M60 800h230v-140h-230v140zM206 -94.5q18 -10.5 49 -13t95 -2.5v-140q-169 0 -263 33.5t-94 114.5q0 32 17 56t50 46v600h230v-600h10q-112 -9 -112 -61q0 -23 18 -33.5z" />
    <glyph glyph-name="Idotaccent" unicode="&#x130;" horiz-adv-x="370" 
d="M60 720h250v-720h-250v720zM85 820v100h200v-100h-200z" />
    <glyph glyph-name="dotlessi" unicode="&#x131;" horiz-adv-x="350" 
d="M60 0v600h230v-600h-230z" />
    <glyph glyph-name="uni0136" unicode="&#x136;" horiz-adv-x="1022" 
d="M604 720h368l-335 -289l335 -431h-304l-208 278l-150 -129v-149h-250v720h250v-271zM386 -190v120h200v-120l-103 -110h-97l68 110h-68z" />
    <glyph glyph-name="uni0137" unicode="&#x137;" horiz-adv-x="972" 
d="M584 600h348l-342 -249l342 -351h-286l-217 234l-139 -101v-133h-230v800h230v-420zM371 -190v120h200v-120l-103 -110h-97l68 110h-68z" />
    <glyph glyph-name="Lacute" unicode="&#x139;" horiz-adv-x="820" 
d="M310 720v-510h470v-210h-720v720h250zM60 797v103l389 80v-103z" />
    <glyph glyph-name="lacute" unicode="&#x13a;" horiz-adv-x="350" 
d="M60 0v800h230v-800h-230zM-20 877v103l389 80v-103z" />
    <glyph glyph-name="uni013B" unicode="&#x13b;" horiz-adv-x="820" 
d="M310 720v-510h470v-210h-720v720h250zM320 -190v120h200v-120l-103 -110h-97l68 110h-68z" />
    <glyph glyph-name="uni013C" unicode="&#x13c;" horiz-adv-x="350" 
d="M60 0v800h230v-800h-230zM75 -190v120h200v-120l-103 -110h-97l68 110h-68z" />
    <glyph glyph-name="Lcaron" unicode="&#x13d;" horiz-adv-x="820" 
d="M310 720v-510h470v-210h-720v720h250zM505 560v120h200v-120l-103 -110h-97l68 110h-68z" />
    <glyph glyph-name="lcaron" unicode="&#x13e;" horiz-adv-x="571" 
d="M60 0v800h230v-800h-230zM351 660v120h200v-120l-103 -110h-97l68 110h-68z" />
    <glyph glyph-name="Lslash" unicode="&#x141;" horiz-adv-x="900" 
d="M370 405v-195h470v-210h-720v330l-108 -32v132l108 32v258h250v-183l212 63v-132z" />
    <glyph glyph-name="lslash" unicode="&#x142;" horiz-adv-x="604" 
d="M417 490l147 68v-110l-147 -68v-380h-230v274l-147 -68v110l147 68v416h230v-310z" />
    <glyph glyph-name="Nacute" unicode="&#x143;" horiz-adv-x="1082" 
d="M772 244v476h250v-720h-370l-342 476v-476h-250v720h370zM346 797v103l389 80v-103z" />
    <glyph glyph-name="nacute" unicode="&#x144;" horiz-adv-x="999" 
d="M939 321v-321h-230v235q0 102 -42 148.5t-146 46.5q-112 0 -171.5 -49t-59.5 -146v-235h-230v600h230v-140q60 76 142.5 118t201.5 42q305 0 305 -299zM305 677v103l389 80v-103z" />
    <glyph glyph-name="uni0145" unicode="&#x145;" horiz-adv-x="1082" 
d="M772 244v476h250v-720h-370l-342 476v-476h-250v720h370zM381 -190v120h200v-120l-103 -110h-97l68 110h-68z" />
    <glyph glyph-name="uni0146" unicode="&#x146;" horiz-adv-x="999" 
d="M939 321v-321h-230v235q0 102 -42 148.5t-146 46.5q-112 0 -171.5 -49t-59.5 -146v-235h-230v600h230v-140q60 76 142.5 118t201.5 42q305 0 305 -299zM400 -190v120h200v-120l-103 -110h-97l68 110h-68z" />
    <glyph glyph-name="Ncaron" unicode="&#x147;" horiz-adv-x="1082" 
d="M772 244v476h250v-720h-370l-342 476v-476h-250v720h370zM334 969l207 -80l207 80v-107l-207 -80l-207 80v107z" />
    <glyph glyph-name="ncaron" unicode="&#x148;" horiz-adv-x="999" 
d="M939 321v-321h-230v235q0 102 -42 148.5t-146 46.5q-112 0 -171.5 -49t-59.5 -146v-235h-230v600h230v-140q60 76 142.5 118t201.5 42q305 0 305 -299zM293 849l207 -80l207 80v-107l-207 -80l-207 80v107z" />
    <glyph glyph-name="Eng" unicode="&#x14a;" horiz-adv-x="1082" 
d="M772 720h250v-720q0 -133 -67 -201.5t-211 -68.5q-91 0 -177 15v185q34 -4 62 -7t51 -3q46 0 64 17.5t18 62.5h-110l-342 476v-476h-250v720h370l342 -476v476z" />
    <glyph glyph-name="eng" unicode="&#x14b;" horiz-adv-x="999" 
d="M939 321v-321q0 -133 -67.5 -201.5t-211.5 -68.5q-91 0 -177 15v185q34 -4 62 -7t51 -3q46 0 70 7.5t33.5 24t9.5 48.5v235q0 102 -42 148.5t-146 46.5q-112 0 -171.5 -49t-59.5 -146v-235h-230v600h230v-140q60 76 142.5 118t201.5 42q305 0 305 -299z" />
    <glyph glyph-name="Omacron" unicode="&#x14c;" horiz-adv-x="1040" 
d="M266 24.5q-105 44.5 -160.5 130t-55.5 206.5t55.5 206t160.5 129t254 44q148 0 253.5 -44.5t161 -129.5t55.5 -205q0 -121 -55.5 -206.5t-161 -130t-253.5 -44.5q-149 0 -254 44.5zM730 361q0 78 -47.5 123.5t-162.5 45.5t-162.5 -45.5t-47.5 -123.5q0 -171 210 -171
t210 171zM285 820v100h469v-100h-469z" />
    <glyph glyph-name="omacron" unicode="&#x14d;" 
d="M149 64q-109 84 -109 236t109 236t319 84t319 -84t109 -236t-109 -236t-319 -84t-319 84zM610 193.5q46 33.5 46 106.5t-46 106.5t-142 33.5t-142 -33.5t-46 -106.5t46 -106.5t142 -33.5t142 33.5zM233 700v100h469v-100h-469z" />
    <glyph glyph-name="Ohungarumlaut" unicode="&#x150;" horiz-adv-x="1040" 
d="M266 24.5q-105 44.5 -160.5 130t-55.5 206.5t55.5 206t160.5 129t254 44q148 0 253.5 -44.5t161 -129.5t55.5 -205q0 -121 -55.5 -206.5t-161 -130t-253.5 -44.5q-149 0 -254 44.5zM730 361q0 78 -47.5 123.5t-162.5 45.5t-162.5 -45.5t-47.5 -123.5q0 -171 210 -171
t210 171zM303 803v107l207 80v-107zM570 803v107l207 80v-107z" />
    <glyph glyph-name="ohungarumlaut" unicode="&#x151;" 
d="M149 64q-109 84 -109 236t109 236t319 84t319 -84t109 -236t-109 -236t-319 -84t-319 84zM610 193.5q46 33.5 46 106.5t-46 106.5t-142 33.5t-142 -33.5t-46 -106.5t46 -106.5t142 -33.5t142 33.5zM251 683v107l207 80v-107zM518 683v107l207 80v-107z" />
    <glyph glyph-name="OE" unicode="&#x152;" horiz-adv-x="1682" 
d="M1622 530h-490v-75h470v-190h-470v-75h490v-190h-740v93q-60 -56 -152 -84.5t-210 -28.5q-149 0 -254 44.5t-160.5 130t-55.5 206.5t55.5 206t160.5 129t254 44q118 0 210 -28.5t152 -83.5v92h740v-190zM730 361q0 78 -47.5 123.5t-162.5 45.5t-162.5 -45.5t-47.5 -123.5
q0 -171 210 -171t210 171z" />
    <glyph glyph-name="oe" unicode="&#x153;" horiz-adv-x="1620" 
d="M1292.5 166.5q41.5 16.5 57.5 48.5h225q-31 -116 -130.5 -175.5t-282.5 -59.5q-237 0 -350 105q-53 -51 -139.5 -78t-204.5 -27q-210 0 -319 84t-109 236t109 236t319 84q236 0 346 -107q56 53 143 80t196 27q199 0 313 -90t114 -268h-621q11 -62 63.5 -87t148.5 -25
q80 0 121.5 16.5zM1031 448q-46 -22 -64 -72h375q-19 50 -65.5 72t-123.5 22q-76 0 -122 -22zM610 193.5q46 33.5 46 106.5t-46 106.5t-142 33.5t-142 -33.5t-46 -106.5t46 -106.5t142 -33.5t142 33.5z" />
    <glyph glyph-name="Racute" unicode="&#x154;" horiz-adv-x="988" 
d="M882.5 243.5q35.5 -35.5 35.5 -99.5v-144h-250v102q0 48 -16 65t-64 17h-278v-184h-250v720h560q148 0 223 -59.5t75 -173.5q0 -81 -34 -131t-100 -73q63 -4 98.5 -39.5zM310 520v-136h250q36 0 55 3.5t31 18t12 46.5t-12 46.5t-31 18t-55 3.5h-250zM274 797v103l389 80
v-103z" />
    <glyph glyph-name="racute" unicode="&#x155;" horiz-adv-x="722" 
d="M611 613q34 -7 71 -23v-200q-48 17 -82 23.5t-73 6.5q-62 0 -121 -27t-116 -99v-294h-230v600h230v-130q46 80 105.5 115t140.5 35q41 0 75 -7zM156 677v103l389 80v-103z" />
    <glyph glyph-name="uni0156" unicode="&#x156;" horiz-adv-x="988" 
d="M882.5 243.5q35.5 -35.5 35.5 -99.5v-144h-250v102q0 48 -16 65t-64 17h-278v-184h-250v720h560q148 0 223 -59.5t75 -173.5q0 -81 -34 -131t-100 -73q63 -4 98.5 -39.5zM310 520v-136h250q36 0 55 3.5t31 18t12 46.5t-12 46.5t-31 18t-55 3.5h-250zM399 -190v120h200
v-120l-103 -110h-97l68 110h-68z" />
    <glyph glyph-name="uni0157" unicode="&#x157;" horiz-adv-x="722" 
d="M611 613q34 -7 71 -23v-200q-48 17 -82 23.5t-73 6.5q-62 0 -121 -27t-116 -99v-294h-230v600h230v-130q46 80 105.5 115t140.5 35q41 0 75 -7zM75 -190v120h200v-120l-103 -110h-97l68 110h-68z" />
    <glyph glyph-name="Rcaron" unicode="&#x158;" horiz-adv-x="988" 
d="M882.5 243.5q35.5 -35.5 35.5 -99.5v-144h-250v102q0 48 -16 65t-64 17h-278v-184h-250v720h560q148 0 223 -59.5t75 -173.5q0 -81 -34 -131t-100 -73q63 -4 98.5 -39.5zM310 520v-136h250q36 0 55 3.5t31 18t12 46.5t-12 46.5t-31 18t-55 3.5h-250zM262 969l207 -80
l207 80v-107l-207 -80l-207 80v107z" />
    <glyph glyph-name="rcaron" unicode="&#x159;" horiz-adv-x="722" 
d="M611 613q34 -7 71 -23v-200q-48 17 -82 23.5t-73 6.5q-62 0 -121 -27t-116 -99v-294h-230v600h230v-130q46 80 105.5 115t140.5 35q41 0 75 -7zM144 849l207 -80l207 80v-107l-207 -80l-207 80v107z" />
    <glyph glyph-name="Sacute" unicode="&#x15a;" horiz-adv-x="994" 
d="M310 237q0 -77 197 -77q74 0 112.5 6.5t51.5 17.5t13 28q0 21 -14 30.5t-55 16t-138 13.5q-147 11 -237.5 38t-135 77t-44.5 130q0 108 109 165.5t298 57.5q212 0 325.5 -62.5t121.5 -182.5h-260q0 35 -45 50t-142 15q-85 0 -116 -11.5t-31 -32.5q0 -17 14 -26.5
t55.5 -16.5t127.5 -15q156 -13 241 -31.5t135.5 -65.5t50.5 -139q0 -131 -108 -186.5t-319 -55.5q-225 0 -342.5 60t-124.5 197h260zM302 797v103l389 80v-103z" />
    <glyph glyph-name="sacute" unicode="&#x15b;" horiz-adv-x="894" 
d="M280 201q0 -26 14.5 -41t53 -22.5t109.5 -7.5q66 0 99.5 5.5t45.5 16.5t12 31q0 22 -14.5 31.5t-48.5 14t-124 10.5q-141 10 -217 25.5t-115.5 51t-39.5 103.5q0 112 105 156.5t284 44.5q173 0 278 -47t112 -155h-240q0 34 -37 48t-118 14q-79 0 -111.5 -11t-32.5 -34
q0 -17 13 -25.5t48.5 -13.5t120.5 -12q148 -13 220 -26.5t114.5 -50.5t42.5 -113q0 -84 -47.5 -131t-131.5 -65t-208 -18q-206 0 -316.5 50.5t-110.5 170.5h240zM252 677v103l389 80v-103z" />
    <glyph glyph-name="Scedilla" unicode="&#x15e;" horiz-adv-x="994" 
d="M839.5 37.5q-104.5 -55.5 -309.5 -57.5l-12 -49q33 12 77 12q48 0 76 -20.5t28 -58.5q0 -57 -60 -84t-155 -27q-41 0 -101 7v90q86 -12 117 -12q59 0 59 28q0 11 -8.5 17t-22.5 6q-21 0 -43 -15l-69 21l17 87q-184 10 -280 71t-103 184h260q0 -77 197 -77q74 0 112.5 6.5
t51.5 17.5t13 28q0 21 -14 30.5t-55 16t-138 13.5q-147 11 -237.5 38t-135 77t-44.5 130q0 108 109 165.5t298 57.5q212 0 325.5 -62.5t121.5 -182.5h-260q0 35 -45 50t-142 15q-85 0 -116 -11.5t-31 -32.5q0 -17 14 -26.5t55.5 -16.5t127.5 -15q156 -13 241 -31.5
t135.5 -65.5t50.5 -139q0 -129 -104.5 -184.5z" />
    <glyph glyph-name="scedilla" unicode="&#x15f;" horiz-adv-x="894" 
d="M808 64.5q-46 -46.5 -127 -65t-201 -19.5l-12 -49q33 12 77 12q48 0 76 -20.5t28 -58.5q0 -57 -60 -84t-155 -27q-41 0 -101 7v90q86 -12 117 -12q59 0 59 28q0 11 -8.5 17t-22.5 6q-21 0 -43 -15l-69 21l17 87q-166 9 -254.5 60.5t-88.5 158.5h240q0 -26 14.5 -41
t53 -22.5t109.5 -7.5q66 0 99.5 5.5t45.5 16.5t12 31q0 22 -14.5 31.5t-48.5 14t-124 10.5q-141 10 -217 25.5t-115.5 51t-39.5 103.5q0 112 105 156.5t284 44.5q173 0 278 -47t112 -155h-240q0 34 -37 48t-118 14q-79 0 -111.5 -11t-32.5 -34q0 -17 13 -25.5t48.5 -13.5
t120.5 -12q148 -13 220 -26.5t114.5 -50.5t42.5 -113q0 -83 -46 -129.5z" />
    <glyph glyph-name="Scaron" unicode="&#x160;" horiz-adv-x="994" 
d="M310 237q0 -77 197 -77q74 0 112.5 6.5t51.5 17.5t13 28q0 21 -14 30.5t-55 16t-138 13.5q-147 11 -237.5 38t-135 77t-44.5 130q0 108 109 165.5t298 57.5q212 0 325.5 -62.5t121.5 -182.5h-260q0 35 -45 50t-142 15q-85 0 -116 -11.5t-31 -32.5q0 -17 14 -26.5
t55.5 -16.5t127.5 -15q156 -13 241 -31.5t135.5 -65.5t50.5 -139q0 -131 -108 -186.5t-319 -55.5q-225 0 -342.5 60t-124.5 197h260zM290 969l207 -80l207 80v-107l-207 -80l-207 80v107z" />
    <glyph glyph-name="scaron" unicode="&#x161;" horiz-adv-x="894" 
d="M280 201q0 -26 14.5 -41t53 -22.5t109.5 -7.5q66 0 99.5 5.5t45.5 16.5t12 31q0 22 -14.5 31.5t-48.5 14t-124 10.5q-141 10 -217 25.5t-115.5 51t-39.5 103.5q0 112 105 156.5t284 44.5q173 0 278 -47t112 -155h-240q0 34 -37 48t-118 14q-79 0 -111.5 -11t-32.5 -34
q0 -17 13 -25.5t48.5 -13.5t120.5 -12q148 -13 220 -26.5t114.5 -50.5t42.5 -113q0 -84 -47.5 -131t-131.5 -65t-208 -18q-206 0 -316.5 50.5t-110.5 170.5h240zM240 849l207 -80l207 80v-107l-207 -80l-207 80v107z" />
    <glyph glyph-name="uni0162" unicode="&#x162;" horiz-adv-x="960" 
d="M910 720v-210h-305v-510h-250v510h-305v210h860zM654 -67.5q28 -20.5 28 -58.5q0 -57 -60 -84t-155 -27q-41 0 -101 7v90q86 -12 117 -12q59 0 59 28q0 11 -8.5 17t-22.5 6q-21 0 -43 -15l-69 21l19 95h98l-15 -59q33 12 77 12q48 0 76 -20.5z" />
    <glyph glyph-name="uni0163" unicode="&#x163;" horiz-adv-x="676" 
d="M636 430h-245v-164q0 -46 21 -71t71 -25q39 0 68.5 4t84.5 16v-185q-108 -25 -202 -25l-10 -39q33 12 77 12q48 0 76 -20.5t28 -58.5q0 -57 -60 -84t-155 -27q-41 0 -101 7v90q86 -12 117 -12q59 0 59 28q0 11 -8.5 17t-22.5 6q-21 0 -43 -15l-69 21l16 82
q-177 32 -177 200v243h-121v170h121v110l230 60v-170h245v-170z" />
    <glyph glyph-name="Tcaron" unicode="&#x164;" horiz-adv-x="960" 
d="M910 720v-210h-305v-510h-250v510h-305v210h860zM273 969l207 -80l207 80v-107l-207 -80l-207 80v107z" />
    <glyph glyph-name="tcaron" unicode="&#x165;" horiz-adv-x="676" 
d="M441 735v108h200v-108l-103 -99h-97l68 99h-68zM391 770v-170h245v-170h-245v-164q0 -46 21 -71t71 -25q39 0 68.5 4t84.5 16v-185q-110 -25 -207 -25q-268 0 -268 207v243h-121v170h121v110z" />
    <glyph glyph-name="Tbar" unicode="&#x166;" horiz-adv-x="960" 
d="M910 720v-210h-305v-150h225v-100h-225v-260h-250v260h-225v100h225v150h-305v210h860z" />
    <glyph glyph-name="tbar" unicode="&#x167;" horiz-adv-x="676" 
d="M636 430h-245v-50h245v-100h-245v-14q0 -46 21 -71t71 -25q39 0 68.5 4t84.5 16v-185q-110 -25 -207 -25q-268 0 -268 207v93h-121v100h121v50h-121v170h121v110l230 60v-170h245v-170z" />
    <glyph glyph-name="Umacron" unicode="&#x16a;" horiz-adv-x="1000" 
d="M940 351q0 -185 -106.5 -278t-333.5 -93q-228 0 -334 92.5t-106 278.5v369h250v-359q0 -75 42.5 -123t147.5 -48t147.5 48.5t42.5 122.5v359h250v-369zM265 820v100h469v-100h-469z" />
    <glyph glyph-name="umacron" unicode="&#x16b;" horiz-adv-x="999" 
d="M709 600h230v-600h-230v140q-60 -76 -142.5 -118t-201.5 -42q-305 0 -305 299v321h230v-235q0 -102 42 -148.5t146 -46.5q112 0 171.5 49t59.5 146v235zM265 700v100h469v-100h-469z" />
    <glyph glyph-name="Uring" unicode="&#x16e;" horiz-adv-x="1000" 
d="M940 351q0 -185 -106.5 -278t-333.5 -93q-228 0 -334 92.5t-106 278.5v369h250v-359q0 -75 42.5 -123t147.5 -48t147.5 48.5t42.5 122.5v359h250v-369zM332.5 813.5q-52.5 33.5 -52.5 98.5t52.5 98.5t167.5 33.5t167.5 -33.5t52.5 -98.5t-52.5 -98.5t-167.5 -33.5
t-167.5 33.5zM573.5 872q26.5 12 26.5 40t-26.5 40t-73.5 12t-73.5 -12t-26.5 -40t26.5 -40t73.5 -12t73.5 12z" />
    <glyph glyph-name="uring" unicode="&#x16f;" horiz-adv-x="999" 
d="M709 600h230v-600h-230v140q-60 -76 -142.5 -118t-201.5 -42q-305 0 -305 299v321h230v-235q0 -102 42 -148.5t146 -46.5q112 0 171.5 49t59.5 146v235zM332.5 693.5q-52.5 33.5 -52.5 98.5t52.5 98.5t167.5 33.5t167.5 -33.5t52.5 -98.5t-52.5 -98.5t-167.5 -33.5
t-167.5 33.5zM573.5 752q26.5 12 26.5 40t-26.5 40t-73.5 12t-73.5 -12t-26.5 -40t26.5 -40t73.5 -12t73.5 12z" />
    <glyph glyph-name="Uhungarumlaut" unicode="&#x170;" horiz-adv-x="1000" 
d="M940 351q0 -185 -106.5 -278t-333.5 -93q-228 0 -334 92.5t-106 278.5v369h250v-359q0 -75 42.5 -123t147.5 -48t147.5 48.5t42.5 122.5v359h250v-369zM283 803v107l207 80v-107zM550 803v107l207 80v-107z" />
    <glyph glyph-name="uhungarumlaut" unicode="&#x171;" horiz-adv-x="999" 
d="M709 600h230v-600h-230v140q-60 -76 -142.5 -118t-201.5 -42q-305 0 -305 299v321h230v-235q0 -102 42 -148.5t146 -46.5q112 0 171.5 49t59.5 146v235zM283 683v107l207 80v-107zM550 683v107l207 80v-107z" />
    <glyph glyph-name="Uogonek" unicode="&#x172;" horiz-adv-x="1000" 
d="M690 720h250v-369q0 -149 -68.5 -238t-211.5 -118q-43 -11 -59 -21.5t-16 -25.5q0 -26 35 -32t113 -6v-140q-101 0 -162.5 9.5t-93.5 34.5t-32 73q0 57 84 93h-29q-228 0 -334 92.5t-106 278.5v369h250v-359q0 -75 42.5 -123t147.5 -48t147.5 48.5t42.5 122.5v359z" />
    <glyph glyph-name="uogonek" unicode="&#x173;" horiz-adv-x="999" 
d="M709 600h230v-600h-1q-74 -5 -103 -21.5t-29 -44.5q0 -21 15 -30.5t40 -11.5t77 -2v-140q-158 0 -242.5 28.5t-84.5 105.5q0 92 157 116h-59v140q-60 -76 -142.5 -118t-201.5 -42q-305 0 -305 299v321h230v-235q0 -102 42 -148.5t146 -46.5q112 0 171.5 49t59.5 146v235z
" />
    <glyph glyph-name="Wcircumflex" unicode="&#x174;" horiz-adv-x="1662" 
d="M1195 191l165 529h252l-232 -720h-360l-189 515l-189 -515h-360l-232 720h252l165 -529l199 529h330zM624 900l207 80l207 -80v-107l-207 80l-207 -80v107z" />
    <glyph glyph-name="wcircumflex" unicode="&#x175;" horiz-adv-x="1597" 
d="M1144 156l186 444h227l-251 -600h-320l-187 391l-188 -391h-320l-251 600h227l186 -444l211 444h269zM592 780l207 80l207 -80v-107l-207 80l-207 -80v107z" />
    <glyph glyph-name="Ycircumflex" unicode="&#x176;" horiz-adv-x="1124" 
d="M562 450l202 270h310l-387 -480v-240h-250v240l-387 480h310zM355 900l207 80l207 -80v-107l-207 80l-207 -80v107z" />
    <glyph glyph-name="ycircumflex" unicode="&#x177;" horiz-adv-x="989" 
d="M726 600h233l-282 -585q-45 -93 -92.5 -152.5t-112.5 -91t-155 -31.5q-49 0 -109 9t-118 26v175q134 -30 193 -30q43 0 67.5 5t44 22t40.5 53h-108l-287 600h233l226 -472zM284 780l207 80l207 -80v-107l-207 80l-207 -80v107z" />
    <glyph glyph-name="Ydieresis" unicode="&#x178;" horiz-adv-x="1124" 
d="M562 450l202 270h310l-387 -480v-240h-250v240l-387 480h310zM342 820v100h180v-100h-180zM602 820v100h180v-100h-180z" />
    <glyph glyph-name="Zacute" unicode="&#x179;" horiz-adv-x="930" 
d="M60 720h810v-210l-448 -300h448v-210h-810v210l448 300h-448v210zM270 797v103l389 80v-103z" />
    <glyph glyph-name="zacute" unicode="&#x17a;" horiz-adv-x="834" 
d="M60 600h714v-170l-409 -260h409v-170h-714v170l409 260h-409v170zM222 677v103l389 80v-103z" />
    <glyph glyph-name="Zdotaccent" unicode="&#x17b;" horiz-adv-x="930" 
d="M60 720h810v-210l-448 -300h448v-210h-810v210l448 300h-448v210zM365 820v100h200v-100h-200z" />
    <glyph glyph-name="zdotaccent" unicode="&#x17c;" horiz-adv-x="834" 
d="M60 600h714v-170l-409 -260h409v-170h-714v170l409 260h-409v170zM317 700v100h200v-100h-200z" />
    <glyph glyph-name="Zcaron" unicode="&#x17d;" horiz-adv-x="930" 
d="M60 720h810v-210l-448 -300h448v-210h-810v210l448 300h-448v210zM258 969l207 -80l207 80v-107l-207 -80l-207 80v107z" />
    <glyph glyph-name="zcaron" unicode="&#x17e;" horiz-adv-x="834" 
d="M60 600h714v-170l-409 -260h409v-170h-714v170l409 260h-409v170zM210 849l207 -80l207 80v-107l-207 -80l-207 80v107z" />
    <glyph glyph-name="uni0218" unicode="&#x218;" horiz-adv-x="994" 
d="M310 237q0 -77 197 -77q74 0 112.5 6.5t51.5 17.5t13 28q0 21 -14 30.5t-55 16t-138 13.5q-147 11 -237.5 38t-135 77t-44.5 130q0 108 109 165.5t298 57.5q212 0 325.5 -62.5t121.5 -182.5h-260q0 35 -45 50t-142 15q-85 0 -116 -11.5t-31 -32.5q0 -17 14 -26.5
t55.5 -16.5t127.5 -15q156 -13 241 -31.5t135.5 -65.5t50.5 -139q0 -131 -108 -186.5t-319 -55.5q-225 0 -342.5 60t-124.5 197h260zM397 -200v120h200v-120l-103 -110h-97l68 110h-68z" />
    <glyph glyph-name="uni0219" unicode="&#x219;" horiz-adv-x="894" 
d="M280 201q0 -26 14.5 -41t53 -22.5t109.5 -7.5q66 0 99.5 5.5t45.5 16.5t12 31q0 22 -14.5 31.5t-48.5 14t-124 10.5q-141 10 -217 25.5t-115.5 51t-39.5 103.5q0 112 105 156.5t284 44.5q173 0 278 -47t112 -155h-240q0 34 -37 48t-118 14q-79 0 -111.5 -11t-32.5 -34
q0 -17 13 -25.5t48.5 -13.5t120.5 -12q148 -13 220 -26.5t114.5 -50.5t42.5 -113q0 -84 -47.5 -131t-131.5 -65t-208 -18q-206 0 -316.5 50.5t-110.5 170.5h240zM347 -200v120h200v-120l-103 -110h-97l68 110h-68z" />
    <glyph glyph-name="uni021A" unicode="&#x21a;" horiz-adv-x="960" 
d="M910 720v-210h-305v-510h-250v510h-305v210h860zM380 -190v120h200v-120l-103 -110h-97l68 110h-68z" />
    <glyph glyph-name="uni021B" unicode="&#x21b;" horiz-adv-x="676" 
d="M636 430h-245v-164q0 -46 21 -71t71 -25q39 0 68.5 4t84.5 16v-185q-110 -25 -207 -25q-268 0 -268 207v243h-121v170h121v110l230 60v-170h245v-170zM303 -200v120h200v-120l-103 -110h-97l68 110h-68z" />
    <glyph glyph-name="circumflex" unicode="&#x2c6;" horiz-adv-x="534" 
d="M60 780l207 80l207 -80v-107l-207 80l-207 -80v107z" />
    <glyph glyph-name="caron" unicode="&#x2c7;" horiz-adv-x="534" 
d="M60 849l207 -80l207 80v-107l-207 -80l-207 80v107z" />
    <glyph glyph-name="breve" unicode="&#x2d8;" horiz-adv-x="574" 
d="M180 860q0 -45 26 -67.5t81 -22.5t81 22.5t26 67.5h120q0 -99 -62.5 -144.5t-164.5 -45.5t-164.5 45.5t-62.5 144.5h120z" />
    <glyph glyph-name="dotaccent" unicode="&#x2d9;" horiz-adv-x="320" 
d="M60 700v100h200v-100h-200z" />
    <glyph glyph-name="ring" unicode="&#x2da;" horiz-adv-x="560" 
d="M112.5 693.5q-52.5 33.5 -52.5 98.5t52.5 98.5t167.5 33.5t167.5 -33.5t52.5 -98.5t-52.5 -98.5t-167.5 -33.5t-167.5 33.5zM353.5 752q26.5 12 26.5 40t-26.5 40t-73.5 12t-73.5 -12t-26.5 -40t26.5 -40t73.5 -12t73.5 12z" />
    <glyph glyph-name="ogonek" unicode="&#x2db;" horiz-adv-x="408" 
d="M348 -230q-102 0 -165.5 9.5t-98 35t-34.5 72.5q0 33 21 59.5t63 53.5h107q-27 -21 -39 -35t-12 -37q0 -27 20.5 -39.5t52 -15.5t85.5 -3v-100z" />
    <glyph glyph-name="tilde" unicode="&#x2dc;" horiz-adv-x="740" 
d="M60 660q0 96 36.5 158t123.5 62q46 0 82 -14t82 -40q33 -19 54 -27.5t42 -8.5q34 0 47 21.5t13 68.5h140q0 -96 -36.5 -158t-123.5 -62q-46 0 -82 14t-82 40q-33 19 -54 27.5t-42 8.5q-34 0 -47 -21.5t-13 -68.5h-140z" />
    <glyph glyph-name="hungarumlaut" unicode="&#x2dd;" horiz-adv-x="594" 
d="M60 683v107l207 80v-107zM327 683v107l207 80v-107z" />
    <glyph glyph-name="gravecomb" unicode="&#x300;" horiz-adv-x="0" 
d="M-449 860l389 -80v-103l-389 80v103z" />
    <glyph glyph-name="acutecomb" unicode="&#x301;" horiz-adv-x="0" 
d="M-449 677v103l389 80v-103z" />
    <glyph glyph-name="uni0302" unicode="&#x302;" horiz-adv-x="0" 
d="M-474 780l207 80l207 -80v-107l-207 80l-207 -80v107z" />
    <glyph glyph-name="tildecomb" unicode="&#x303;" horiz-adv-x="0" 
d="M-680 660q0 96 36.5 158t123.5 62q46 0 82 -14t82 -40q33 -19 54 -27.5t42 -8.5q34 0 47 21.5t13 68.5h140q0 -96 -36.5 -158t-123.5 -62q-46 0 -82 14t-82 40q-33 19 -54 27.5t-42 8.5q-34 0 -47 -21.5t-13 -68.5h-140z" />
    <glyph glyph-name="uni0304" unicode="&#x304;" horiz-adv-x="0" 
d="M-529 700v100h469v-100h-469z" />
    <glyph glyph-name="uni0306" unicode="&#x306;" horiz-adv-x="0" 
d="M-394 860q0 -45 26 -67.5t81 -22.5t81 22.5t26 67.5h120q0 -99 -62.5 -144.5t-164.5 -45.5t-164.5 45.5t-62.5 144.5h120z" />
    <glyph glyph-name="uni0307" unicode="&#x307;" horiz-adv-x="0" 
d="M-260 700v100h200v-100h-200z" />
    <glyph glyph-name="uni0308" unicode="&#x308;" horiz-adv-x="0" 
d="M-500 700v100h180v-100h-180zM-240 700v100h180v-100h-180z" />
    <glyph glyph-name="uni030A" unicode="&#x30a;" horiz-adv-x="0" 
d="M-447.5 693.5q-52.5 33.5 -52.5 98.5t52.5 98.5t167.5 33.5t167.5 -33.5t52.5 -98.5t-52.5 -98.5t-167.5 -33.5t-167.5 33.5zM-206.5 752q26.5 12 26.5 40t-26.5 40t-73.5 12t-73.5 -12t-26.5 -40t26.5 -40t73.5 -12t73.5 12z" />
    <glyph glyph-name="uni030B" unicode="&#x30b;" horiz-adv-x="0" 
d="M-534 683v107l207 80v-107zM-267 683v107l207 80v-107z" />
    <glyph glyph-name="uni030C" unicode="&#x30c;" horiz-adv-x="0" 
d="M-474 849l207 -80l207 80v-107l-207 -80l-207 80v107z" />
    <glyph glyph-name="uni0312" unicode="&#x312;" horiz-adv-x="0" 
d="M-60 820v-120h-200v120l103 110h97l-68 -110h68z" />
    <glyph glyph-name="uni0326" unicode="&#x326;" horiz-adv-x="0" 
d="M-260 -190v120h200v-120l-103 -110h-97l68 110h-68z" />
    <glyph glyph-name="uni0327" unicode="&#x327;" horiz-adv-x="0" 
d="M-88 -67.5q28 -20.5 28 -58.5q0 -57 -60 -84t-155 -27q-41 0 -101 7v90q86 -12 117 -12q59 0 59 28q0 11 -8.5 17t-22.5 6q-21 0 -43 -15l-69 21l19 95h98l-15 -59q33 12 77 12q48 0 76 -20.5z" />
    <glyph glyph-name="uni0328" unicode="&#x328;" horiz-adv-x="0" 
d="M-60 -230q-102 0 -165.5 9.5t-98 35t-34.5 72.5q0 33 21 59.5t63 53.5h107q-27 -21 -39 -35t-12 -37q0 -27 20.5 -39.5t52 -15.5t85.5 -3v-100z" />
    <glyph glyph-name="uni0335" unicode="&#x335;" horiz-adv-x="0" 
d="M-540 290v100h480v-100h-480z" />
    <glyph glyph-name="uni0336" unicode="&#x336;" horiz-adv-x="0" 
d="M-1060 290v100h1000v-100h-1000z" />
    <glyph glyph-name="uni0337" unicode="&#x337;" horiz-adv-x="0" 
d="M-280 800h220l-284 -950h-220z" />
    <glyph glyph-name="uni0338" unicode="&#x338;" horiz-adv-x="0" 
d="M-230 720h170l-260 -870h-170z" />
    <glyph glyph-name="Wgrave" unicode="&#x1e80;" horiz-adv-x="1662" 
d="M1195 191l165 529h252l-232 -720h-360l-189 515l-189 -515h-360l-232 720h252l165 -529l199 529h330zM636 980l389 -80v-103l-389 80v103z" />
    <glyph glyph-name="wgrave" unicode="&#x1e81;" horiz-adv-x="1597" 
d="M1144 156l186 444h227l-251 -600h-320l-187 391l-188 -391h-320l-251 600h227l186 -444l211 444h269zM604 860l389 -80v-103l-389 80v103z" />
    <glyph glyph-name="Wacute" unicode="&#x1e82;" horiz-adv-x="1662" 
d="M1195 191l165 529h252l-232 -720h-360l-189 515l-189 -515h-360l-232 720h252l165 -529l199 529h330zM636 797v103l389 80v-103z" />
    <glyph glyph-name="wacute" unicode="&#x1e83;" horiz-adv-x="1597" 
d="M1144 156l186 444h227l-251 -600h-320l-187 391l-188 -391h-320l-251 600h227l186 -444l211 444h269zM604 677v103l389 80v-103z" />
    <glyph glyph-name="Wdieresis" unicode="&#x1e84;" horiz-adv-x="1662" 
d="M1195 191l165 529h252l-232 -720h-360l-189 515l-189 -515h-360l-232 720h252l165 -529l199 529h330zM611 820v100h180v-100h-180zM871 820v100h180v-100h-180z" />
    <glyph glyph-name="wdieresis" unicode="&#x1e85;" horiz-adv-x="1597" 
d="M1144 156l186 444h227l-251 -600h-320l-187 391l-188 -391h-320l-251 600h227l186 -444l211 444h269zM579 700v100h180v-100h-180zM839 700v100h180v-100h-180z" />
    <glyph glyph-name="Ygrave" unicode="&#x1ef2;" horiz-adv-x="1124" 
d="M562 450l202 270h310l-387 -480v-240h-250v240l-387 480h310zM367 980l389 -80v-103l-389 80v103z" />
    <glyph glyph-name="ygrave" unicode="&#x1ef3;" horiz-adv-x="989" 
d="M726 600h233l-282 -585q-45 -93 -92.5 -152.5t-112.5 -91t-155 -31.5q-49 0 -109 9t-118 26v175q134 -30 193 -30q43 0 67.5 5t44 22t40.5 53h-108l-287 600h233l226 -472zM296 860l389 -80v-103l-389 80v103z" />
    <glyph glyph-name="endash" unicode="&#x2013;" horiz-adv-x="1160" 
d="M80 255v170h1000v-170h-1000z" />
    <glyph glyph-name="emdash" unicode="&#x2014;" horiz-adv-x="1360" 
d="M80 255v170h1200v-170h-1200z" />
    <glyph glyph-name="quoteleft" unicode="&#x2018;" horiz-adv-x="400" 
d="M300 400h-230l70 380h200z" />
    <glyph glyph-name="quoteright" unicode="&#x2019;" horiz-adv-x="390" 
d="M100 780h230l-70 -380h-200z" />
    <glyph glyph-name="quotesinglbase" unicode="&#x201a;" horiz-adv-x="360" 
d="M60 0v180h240v-180l-113 -220h-107l68 220h-88z" />
    <glyph glyph-name="quotedblleft" unicode="&#x201c;" horiz-adv-x="710" 
d="M300 400h-230l70 380h200zM610 400h-230l70 380h200z" />
    <glyph glyph-name="quotedblright" unicode="&#x201d;" horiz-adv-x="710" 
d="M100 780h230l-70 -380h-200zM410 780h230l-70 -380h-200z" />
    <glyph glyph-name="quotedblbase" unicode="&#x201e;" horiz-adv-x="670" 
d="M370 0v180h240v-180l-113 -220h-107l68 220h-88zM60 0v180h240v-180l-113 -220h-107l68 220h-88z" />
    <glyph glyph-name="dagger" unicode="&#x2020;" horiz-adv-x="920" 
d="M565 600h295v-190h-295v-560h-210v560h-295v190h295v200h210v-200z" />
    <glyph glyph-name="daggerdbl" unicode="&#x2021;" horiz-adv-x="920" 
d="M860 600v-190h-295v-170h295v-190h-295v-200h-210v200h-295v190h295v170h-295v190h295v200h210v-200h295z" />
    <glyph glyph-name="bullet" unicode="&#x2022;" horiz-adv-x="533" 
d="M110.5 209.5q-50.5 35.5 -50.5 111.5q0 75 50.5 110.5t156.5 35.5q105 0 155.5 -35.5t50.5 -110.5q0 -76 -50.5 -111.5t-155.5 -35.5q-106 0 -156.5 35.5z" />
    <glyph glyph-name="ellipsis" unicode="&#x2026;" horiz-adv-x="960" 
d="M60 0v180h240v-180h-240zM360 0v180h240v-180h-240zM660 0v180h240v-180h-240z" />
    <glyph glyph-name="perthousand" unicode="&#x2030;" horiz-adv-x="2140" 
d="M190.5 284q-64.5 35 -97.5 91t-33 120q0 63 33 119t97.5 91t154.5 35q91 0 155.5 -34.5t97.5 -91t33 -119.5q0 -64 -33 -120t-97.5 -91t-155.5 -35q-90 0 -154.5 35zM890 720h194l-456 -720h-194zM425.5 420q25.5 31 25.5 76q0 44 -25.5 74t-80.5 30t-80 -30t-25 -74
q0 -45 25 -76t80 -31t80.5 31zM1018.5 15q-64.5 35 -97.5 91t-33 120q0 63 33 119t97.5 91t154.5 35q91 0 155.5 -34.5t97.5 -91t33 -119.5q0 -64 -33 -120t-97.5 -91t-155.5 -35q-90 0 -154.5 35zM1639.5 15q-64.5 35 -97.5 91t-33 120q0 63 33 119t97.5 91t154.5 35
q91 0 155.5 -34.5t97.5 -91t33 -119.5q0 -64 -33 -120t-97.5 -91t-155.5 -35q-90 0 -154.5 35zM1253.5 151q25.5 31 25.5 76q0 44 -25.5 74t-80.5 30t-80 -30t-25 -74q0 -45 25 -76t80 -31t80.5 31zM1874.5 151q25.5 31 25.5 76q0 44 -25.5 74t-80.5 30t-80 -30t-25 -74
q0 -45 25 -76t80 -31t80.5 31z" />
    <glyph glyph-name="guilsinglleft" unicode="&#x2039;" horiz-adv-x="658" 
d="M60 300l260 300h278l-260 -300l260 -300h-278z" />
    <glyph glyph-name="guilsinglright" unicode="&#x203a;" horiz-adv-x="658" 
d="M60 600h278l260 -300l-260 -300h-278l260 300z" />
    <glyph glyph-name="fraction" unicode="&#x2044;" horiz-adv-x="630" 
d="M354 800h220l-284 -950h-220z" />
    <glyph glyph-name="Euro" unicode="&#x20ac;" horiz-adv-x="840" 
d="M462.5 517q-36.5 -23 -50.5 -71h252v-60h-263q-1 -11 -1 -35v-15h264v-60h-255q14 -48 51.5 -72t102.5 -24q53 0 95.5 8t121.5 32v-200q-82 -22 -145 -31t-139 -9q-161 0 -247.5 79t-104.5 217h-84v60h80v15q0 24 1 35h-81v60h87q21 137 107 215.5t242 78.5q76 0 139 -9
t145 -31v-200q-79 24 -121.5 32t-95.5 8q-64 0 -100.5 -23z" />
    <glyph glyph-name="trademark" unicode="&#x2122;" horiz-adv-x="1130" 
d="M225 620h-165v80h413v-80h-164l-1 -247h-83v247zM605 373h-84v327h133l141 -249l142 249h133l-1 -327h-83v247l-141 -247h-100l-140 247v-247z" />
    <glyph glyph-name="arrowleft" unicode="&#x2190;" horiz-adv-x="820" 
d="M760 425v-150h-433l142 -133l-105 -99l-304 308l304 306l105 -99l-142 -133h433z" />
    <glyph glyph-name="arrowup" unicode="&#x2191;" horiz-adv-x="734" 
d="M442 463v-433h-150v433l-133 -142l-99 105l306 304l308 -304l-99 -105z" />
    <glyph glyph-name="arrowright" unicode="&#x2192;" horiz-adv-x="820" 
d="M493 275h-433v150h433l-142 133l105 99l304 -306l-304 -308l-105 99z" />
    <glyph glyph-name="arrowdown" unicode="&#x2193;" horiz-adv-x="734" 
d="M292 680h150v-433l133 142l99 -105l-308 -304l-306 304l99 105l133 -142v433z" />
    <glyph glyph-name="arrowboth" unicode="&#x2194;" horiz-adv-x="1407" 
d="M938 558l105 99l304 -306l-304 -308l-105 99l142 133h-753l142 -133l-105 -99l-304 308l304 306l105 -99l-142 -133h753z" />
    <glyph glyph-name="arrowupdn" unicode="&#x2195;" horiz-adv-x="734" 
d="M442 27l133 142l99 -105l-308 -304l-306 304l99 105l133 -142v536l-133 -142l-99 105l306 304l308 -304l-99 -105l-133 142v-536z" />
    <glyph glyph-name="uni2196" unicode="&#x2196;" horiz-adv-x="670" 
d="M610 195l-106 -106l-306 306l6 -194l-144 4l3 433l431 1l4 -144l-194 6z" />
    <glyph glyph-name="uni2197" unicode="&#x2197;" horiz-adv-x="670" 
d="M472 386l-306 -306l-106 106l306 306l-194 -6l4 144l431 -1l3 -433l-144 -4z" />
    <glyph glyph-name="uni2198" unicode="&#x2198;" horiz-adv-x="670" 
d="M60 514l106 106l306 -306l-6 194l144 -4l-3 -433l-431 -1l-4 144l194 -6z" />
    <glyph glyph-name="uni2199" unicode="&#x2199;" horiz-adv-x="670" 
d="M198 314l306 306l106 -106l-306 -306l194 6l-4 -144l-431 1l-3 433l144 4z" />
    <glyph glyph-name="emptyset" unicode="&#x2205;" horiz-adv-x="1158" 
d="M1098 750l-108 -108q45 -60 68.5 -134t23.5 -157q0 -132 -58 -239t-171.5 -169.5t-272.5 -62.5q-165 0 -283 69l-118 -118l-119 119l110 110q-46 59 -69.5 133.5t-23.5 157.5q0 132 58.5 238.5t172 168.5t272.5 62q162 0 283 -67l116 116zM337 227l370 370
q-54 23 -127 23q-131 0 -197 -70.5t-66 -198.5q0 -69 20 -124zM823 475l-371 -371q53 -24 128 -24q131 0 196.5 71t65.5 200q0 71 -19 124z" />
    <glyph glyph-name="product" unicode="&#x220f;" horiz-adv-x="1303" 
d="M1243 800v-190h-215v-760h-210v760h-333v-760h-210v760h-215v190h1183z" />
    <glyph glyph-name="minus" unicode="&#x2212;" horiz-adv-x="920" 
d="M60 255v170h800v-170h-800z" />
    <glyph glyph-name="integral" unicode="&#x222b;" horiz-adv-x="993" 
d="M60 40q66 0 114 8t93 42.5t67 107.5l75 254q48 163 124 238.5t164 92.5t236 17v-190q-66 0 -114 -8t-93 -42.5t-67 -107.5l-75 -254q-48 -163 -124 -238.5t-164 -92.5t-236 -17v190z" />
    <glyph glyph-name="approxequal" unicode="&#x2248;" horiz-adv-x="920" 
d="M60 380q0 152 54 236t156 84q52 0 93 -17t98 -51q43 -26 71.5 -39t57.5 -13q43 0 61.5 26.5t18.5 93.5h190q0 -152 -54 -236t-156 -84q-52 0 -93 17t-98 51q-43 26 -71.5 39t-57.5 13q-43 0 -61.5 -26.5t-18.5 -93.5h-190zM60 0q0 152 54 236t156 84q52 0 93 -17t98 -51
q43 -26 71.5 -39t57.5 -13q43 0 61.5 26.5t18.5 93.5h190q0 -152 -54 -236t-156 -84q-52 0 -93 17t-98 51q-43 26 -71.5 39t-57.5 13q-43 0 -61.5 -26.5t-18.5 -93.5h-190z" />
    <glyph glyph-name="notequal" unicode="&#x2260;" horiz-adv-x="920" 
d="M860 584v-170h-248l-44 -150h292v-170h-343l-69 -230h-220l69 230h-237v170h288l44 150h-332v170h383l69 230h220l-69 -230h197z" />
    <glyph glyph-name="lessequal" unicode="&#x2264;" horiz-adv-x="920" 
d="M60 632l800 110v-193l-616 -67l616 -67v-193l-800 110v300zM860 0h-800v170h800v-170z" />
    <glyph glyph-name="greaterequal" unicode="&#x2265;" horiz-adv-x="920" 
d="M60 0v170h800v-170h-800zM60 549v193l800 -110v-300l-800 -110v193l616 67z" />
    <glyph glyph-name="lozenge" unicode="&#x25ca;" horiz-adv-x="972" 
d="M642 800l270 -490l-270 -490h-311l-271 490l271 490h311zM277 310l210 -381l208 381l-208 381z" />
    <glyph glyph-name="A.ss01" horiz-adv-x="1336" 
d="M1286 0h-266l-59 126h-586l-59 -126h-266l345 720h546zM556 510l-96 -204h416l-96 204h-224z" />
    <glyph glyph-name="Aacute.ss01" horiz-adv-x="1336" 
d="M1286 0h-266l-59 126h-586l-59 -126h-266l345 720h546zM556 510l-96 -204h416l-96 204h-224zM473 797v103l389 80v-103z" />
    <glyph glyph-name="Abreve.ss01" horiz-adv-x="1336" 
d="M1286 0h-266l-59 126h-586l-59 -126h-266l345 720h546zM556 510l-96 -204h416l-96 204h-224zM561 980q0 -45 26 -67.5t81 -22.5t81 22.5t26 67.5h120q0 -99 -62.5 -144.5t-164.5 -45.5t-164.5 45.5t-62.5 144.5h120z" />
    <glyph glyph-name="Acircumflex.ss01" horiz-adv-x="1336" 
d="M1286 0h-266l-59 126h-586l-59 -126h-266l345 720h546zM556 510l-96 -204h416l-96 204h-224zM461 900l207 80l207 -80v-107l-207 80l-207 -80v107z" />
    <glyph glyph-name="Adieresis.ss01" horiz-adv-x="1336" 
d="M1286 0h-266l-59 126h-586l-59 -126h-266l345 720h546zM556 510l-96 -204h416l-96 204h-224zM448 820v100h180v-100h-180zM708 820v100h180v-100h-180z" />
    <glyph glyph-name="Agrave.ss01" horiz-adv-x="1336" 
d="M1286 0h-266l-59 126h-586l-59 -126h-266l345 720h546zM556 510l-96 -204h416l-96 204h-224zM473 980l389 -80v-103l-389 80v103z" />
    <glyph glyph-name="Amacron.ss01" horiz-adv-x="1336" 
d="M1286 0h-266l-59 126h-586l-59 -126h-266l345 720h546zM556 510l-96 -204h416l-96 204h-224zM433 820v100h469v-100h-469z" />
    <glyph glyph-name="Aogonek.ss01" horiz-adv-x="1336" 
d="M1286 0h-266l-59 126h-586l-59 -126h-266l345 720h546zM556 510l-96 -204h416l-96 204h-224zM1281 -230q-102 0 -165.5 9.5t-98 35t-34.5 72.5q0 33 21 59.5t63 53.5h107q-27 -21 -39 -35t-12 -37q0 -27 20.5 -39.5t52 -15.5t85.5 -3v-100z" />
    <glyph glyph-name="Aring.ss01" horiz-adv-x="1336" 
d="M1286 0h-266l-59 126h-586l-59 -126h-266l345 720h546zM556 510l-96 -204h416l-96 204h-224zM500.5 813.5q-52.5 33.5 -52.5 98.5t52.5 98.5t167.5 33.5t167.5 -33.5t52.5 -98.5t-52.5 -98.5t-167.5 -33.5t-167.5 33.5zM741.5 872q26.5 12 26.5 40t-26.5 40t-73.5 12
t-73.5 -12t-26.5 -40t26.5 -40t73.5 -12t73.5 12z" />
    <glyph glyph-name="Atilde.ss01" horiz-adv-x="1336" 
d="M1286 0h-266l-59 126h-586l-59 -126h-266l345 720h546zM556 510l-96 -204h416l-96 204h-224zM358 780q0 96 36.5 158t123.5 62q46 0 82 -14t82 -40q33 -19 54 -27.5t42 -8.5q34 0 47 21.5t13 68.5h140q0 -96 -36.5 -158t-123.5 -62q-46 0 -82 14t-82 40q-33 19 -54 27.5
t-42 8.5q-34 0 -47 -21.5t-13 -68.5h-140z" />
    <glyph glyph-name="K.ss01" horiz-adv-x="1072" 
d="M715 720h297l-296 -360l296 -360h-297l-214 255h-191v-255h-250v720h250v-255h191z" />
    <glyph glyph-name="uni0136.ss01" horiz-adv-x="1072" 
d="M715 720h297l-296 -360l296 -360h-297l-214 255h-191v-255h-250v720h250v-255h191zM416 -190v120h200v-120l-103 -110h-97l68 110h-68z" />
    <glyph glyph-name="R.ss01" horiz-adv-x="968" 
d="M879.5 310.5q-38.5 -62.5 -110.5 -92.5l149 -218h-286l-119 194h-203v-194h-250v720h580q135 0 206.5 -67.5t71.5 -195.5q0 -84 -38.5 -146.5zM310 520v-126h250q36 0 55 3t31 16.5t12 43.5t-12 43.5t-31 16.5t-55 3h-250z" />
    <glyph glyph-name="Racute.ss01" horiz-adv-x="968" 
d="M879.5 310.5q-38.5 -62.5 -110.5 -92.5l149 -218h-286l-119 194h-203v-194h-250v720h580q135 0 206.5 -67.5t71.5 -195.5q0 -84 -38.5 -146.5zM310 520v-126h250q36 0 55 3t31 16.5t12 43.5t-12 43.5t-31 16.5t-55 3h-250zM274 797v103l389 80v-103z" />
    <glyph glyph-name="Rcaron.ss01" horiz-adv-x="968" 
d="M879.5 310.5q-38.5 -62.5 -110.5 -92.5l149 -218h-286l-119 194h-203v-194h-250v720h580q135 0 206.5 -67.5t71.5 -195.5q0 -84 -38.5 -146.5zM310 520v-126h250q36 0 55 3t31 16.5t12 43.5t-12 43.5t-31 16.5t-55 3h-250zM262 969l207 -80l207 80v-107l-207 -80l-207 80
v107z" />
    <glyph glyph-name="uni0156.ss01" horiz-adv-x="968" 
d="M879.5 310.5q-38.5 -62.5 -110.5 -92.5l149 -218h-286l-119 194h-203v-194h-250v720h580q135 0 206.5 -67.5t71.5 -195.5q0 -84 -38.5 -146.5zM310 520v-126h250q36 0 55 3t31 16.5t12 43.5t-12 43.5t-31 16.5t-55 3h-250zM369 -190v120h200v-120l-103 -110h-97l68 110
h-68z" />
    <glyph glyph-name="V.ss01" horiz-adv-x="1336" 
d="M1020 720h266l-345 -720h-546l-345 720h266l240 -510h224z" />
    <glyph glyph-name="W.ss01" horiz-adv-x="1776" 
d="M1316 210l158 510h252l-232 -720h-472l-134 497l-134 -497h-472l-232 720h252l158 -510h107l141 510h360l141 -510h107z" />
    <glyph glyph-name="Wacute.ss01" horiz-adv-x="1776" 
d="M1316 210l158 510h252l-232 -720h-472l-134 497l-134 -497h-472l-232 720h252l158 -510h107l141 510h360l141 -510h107zM693 797v103l389 80v-103z" />
    <glyph glyph-name="Wcircumflex.ss01" horiz-adv-x="1776" 
d="M1316 210l158 510h252l-232 -720h-472l-134 497l-134 -497h-472l-232 720h252l158 -510h107l141 510h360l141 -510h107zM681 900l207 80l207 -80v-107l-207 80l-207 -80v107z" />
    <glyph glyph-name="Wdieresis.ss01" horiz-adv-x="1776" 
d="M1316 210l158 510h252l-232 -720h-472l-134 497l-134 -497h-472l-232 720h252l158 -510h107l141 510h360l141 -510h107zM668 820v100h180v-100h-180zM928 820v100h180v-100h-180z" />
    <glyph glyph-name="Wgrave.ss01" horiz-adv-x="1776" 
d="M1316 210l158 510h252l-232 -720h-472l-134 497l-134 -497h-472l-232 720h252l158 -510h107l141 510h360l141 -510h107zM693 980l389 -80v-103l-389 80v103z" />
    <glyph glyph-name="i.loclTRK" horiz-adv-x="350" 
d="M60 660v140h230v-140h-230zM60 0v600h230v-600h-230z" />
    <glyph glyph-name="a.001" horiz-adv-x="938" 
d="M724.5 589q81.5 -31 122 -99.5t41.5 -182.5v-307h-230v80q-75 -46 -165.5 -68t-175.5 -22q-127 0 -202 45t-75 146q0 112 99 158.5t246 46.5q127 0 273 -30q-4 58 -51.5 81t-134.5 23q-79 0 -160.5 -11.5t-190.5 -36.5l-32 157q229 51 426 51q128 0 209.5 -31zM658 180
v46q-140 20 -239 20q-76 0 -107.5 -11t-31.5 -38q0 -26 26 -36.5t90 -10.5q82 0 262 30z" />
    <glyph glyph-name="a.ss01" 
d="M646 594h230v-600h-230v113q-43 -66 -116.5 -96.5t-161.5 -30.5q-85 0 -159 31.5t-121.5 103t-47.5 185.5t47.5 185.5t121.5 103t159 31.5q88 0 161.5 -30.5t116.5 -96.5v101zM600.5 202q45.5 32 45.5 98t-45.5 98t-137.5 32t-137.5 -32t-45.5 -98t45.5 -98t137.5 -32
t137.5 32z" />
    <glyph glyph-name="aacute.ss01" 
d="M646 594h230v-600h-230v113q-43 -66 -116.5 -96.5t-161.5 -30.5q-85 0 -159 31.5t-121.5 103t-47.5 185.5t47.5 185.5t121.5 103t159 31.5q88 0 161.5 -30.5t116.5 -96.5v101zM600.5 202q45.5 32 45.5 98t-45.5 98t-137.5 32t-137.5 -32t-45.5 -98t45.5 -98t137.5 -32
t137.5 32zM268 677v103l389 80v-103z" />
    <glyph glyph-name="abreve.ss01" 
d="M646 594h230v-600h-230v113q-43 -66 -116.5 -96.5t-161.5 -30.5q-85 0 -159 31.5t-121.5 103t-47.5 185.5t47.5 185.5t121.5 103t159 31.5q88 0 161.5 -30.5t116.5 -96.5v101zM600.5 202q45.5 32 45.5 98t-45.5 98t-137.5 32t-137.5 -32t-45.5 -98t45.5 -98t137.5 -32
t137.5 32zM356 860q0 -45 26 -67.5t81 -22.5t81 22.5t26 67.5h120q0 -99 -62.5 -144.5t-164.5 -45.5t-164.5 45.5t-62.5 144.5h120z" />
    <glyph glyph-name="acircumflex.ss01" 
d="M646 594h230v-600h-230v113q-43 -66 -116.5 -96.5t-161.5 -30.5q-85 0 -159 31.5t-121.5 103t-47.5 185.5t47.5 185.5t121.5 103t159 31.5q88 0 161.5 -30.5t116.5 -96.5v101zM600.5 202q45.5 32 45.5 98t-45.5 98t-137.5 32t-137.5 -32t-45.5 -98t45.5 -98t137.5 -32
t137.5 32zM256 780l207 80l207 -80v-107l-207 80l-207 -80v107z" />
    <glyph glyph-name="adieresis.ss01" 
d="M646 594h230v-600h-230v113q-43 -66 -116.5 -96.5t-161.5 -30.5q-85 0 -159 31.5t-121.5 103t-47.5 185.5t47.5 185.5t121.5 103t159 31.5q88 0 161.5 -30.5t116.5 -96.5v101zM600.5 202q45.5 32 45.5 98t-45.5 98t-137.5 32t-137.5 -32t-45.5 -98t45.5 -98t137.5 -32
t137.5 32zM243 700v100h180v-100h-180zM503 700v100h180v-100h-180z" />
    <glyph glyph-name="agrave.ss01" 
d="M646 594h230v-600h-230v113q-43 -66 -116.5 -96.5t-161.5 -30.5q-85 0 -159 31.5t-121.5 103t-47.5 185.5t47.5 185.5t121.5 103t159 31.5q88 0 161.5 -30.5t116.5 -96.5v101zM600.5 202q45.5 32 45.5 98t-45.5 98t-137.5 32t-137.5 -32t-45.5 -98t45.5 -98t137.5 -32
t137.5 32zM268 860l389 -80v-103l-389 80v103z" />
    <glyph glyph-name="amacron.ss01" 
d="M646 594h230v-600h-230v113q-43 -66 -116.5 -96.5t-161.5 -30.5q-85 0 -159 31.5t-121.5 103t-47.5 185.5t47.5 185.5t121.5 103t159 31.5q88 0 161.5 -30.5t116.5 -96.5v101zM600.5 202q45.5 32 45.5 98t-45.5 98t-137.5 32t-137.5 -32t-45.5 -98t45.5 -98t137.5 -32
t137.5 32zM228 700v100h469v-100h-469z" />
    <glyph glyph-name="aogonek.ss01" 
d="M752.5 -111.5q20.5 -12.5 52 -15.5t85.5 -3v-100q-102 0 -165.5 9.5t-98 35t-34.5 72.5q0 31 19 56.5t56 50.5h-21v113q-43 -66 -116.5 -96.5t-161.5 -30.5q-85 0 -159 31.5t-121.5 103t-47.5 185.5t47.5 185.5t121.5 103t159 31.5q88 0 161.5 -30.5t116.5 -96.5v101h230
v-600h-101q-20 -16 -31.5 -30.5t-11.5 -35.5q0 -27 20.5 -39.5zM600.5 202q45.5 32 45.5 98t-45.5 98t-137.5 32t-137.5 -32t-45.5 -98t45.5 -98t137.5 -32t137.5 32z" />
    <glyph glyph-name="aring.ss01" 
d="M646 594h230v-600h-230v113q-43 -66 -116.5 -96.5t-161.5 -30.5q-85 0 -159 31.5t-121.5 103t-47.5 185.5t47.5 185.5t121.5 103t159 31.5q88 0 161.5 -30.5t116.5 -96.5v101zM600.5 202q45.5 32 45.5 98t-45.5 98t-137.5 32t-137.5 -32t-45.5 -98t45.5 -98t137.5 -32
t137.5 32zM295.5 693.5q-52.5 33.5 -52.5 98.5t52.5 98.5t167.5 33.5t167.5 -33.5t52.5 -98.5t-52.5 -98.5t-167.5 -33.5t-167.5 33.5zM536.5 752q26.5 12 26.5 40t-26.5 40t-73.5 12t-73.5 -12t-26.5 -40t26.5 -40t73.5 -12t73.5 12z" />
    <glyph glyph-name="atilde.ss01" 
d="M646 594h230v-600h-230v113q-43 -66 -116.5 -96.5t-161.5 -30.5q-85 0 -159 31.5t-121.5 103t-47.5 185.5t47.5 185.5t121.5 103t159 31.5q88 0 161.5 -30.5t116.5 -96.5v101zM600.5 202q45.5 32 45.5 98t-45.5 98t-137.5 32t-137.5 -32t-45.5 -98t45.5 -98t137.5 -32
t137.5 32zM153 660q0 96 36.5 158t123.5 62q46 0 82 -14t82 -40q33 -19 54 -27.5t42 -8.5q34 0 47 21.5t13 68.5h140q0 -96 -36.5 -158t-123.5 -62q-46 0 -82 14t-82 40q-33 19 -54 27.5t-42 8.5q-34 0 -47 -21.5t-13 -68.5h-140z" />
    <glyph glyph-name="g.ss01" horiz-adv-x="985" 
d="M955 600v-100q-32 0 -95 14q36 -45 36 -111q0 -105 -97.5 -161.5t-325.5 -56.5q-127 0 -173.5 -1.5t-64 -7t-17.5 -20.5t19 -20.5t70.5 -7t194.5 -1.5q156 0 247 -17t133.5 -59.5t42.5 -118.5q0 -79 -48 -121t-137.5 -56.5t-237.5 -14.5q-155 0 -249.5 9t-148.5 38
t-54 86q0 51 45 79.5t116 36.5q-77 12 -119 41t-42 81q0 89 139 112q-139 51 -139 180q0 104 97 160.5t326 56.5q132 0 223 -20h259zM598 335.5q38 20.5 38 67.5q0 46 -38 66.5t-125 20.5q-88 0 -125.5 -20.5t-37.5 -66.5q0 -47 37.5 -67.5t125.5 -20.5q87 0 125 20.5z
M717.5 -39q-17.5 9 -65.5 12.5t-150 3.5h-2h-1q-100 0 -147 -3.5t-64.5 -12.5t-17.5 -28t17.5 -28t64.5 -12t150 -3t150.5 3t65 12t17.5 28t-17.5 28z" />
    <glyph glyph-name="gbreve.ss01" horiz-adv-x="985" 
d="M955 600v-100q-32 0 -95 14q36 -45 36 -111q0 -105 -97.5 -161.5t-325.5 -56.5q-127 0 -173.5 -1.5t-64 -7t-17.5 -20.5t19 -20.5t70.5 -7t194.5 -1.5q156 0 247 -17t133.5 -59.5t42.5 -118.5q0 -79 -48 -121t-137.5 -56.5t-237.5 -14.5q-155 0 -249.5 9t-148.5 38
t-54 86q0 51 45 79.5t116 36.5q-77 12 -119 41t-42 81q0 89 139 112q-139 51 -139 180q0 104 97 160.5t326 56.5q132 0 223 -20h259zM598 335.5q38 20.5 38 67.5q0 46 -38 66.5t-125 20.5q-88 0 -125.5 -20.5t-37.5 -66.5q0 -47 37.5 -67.5t125.5 -20.5q87 0 125 20.5z
M717.5 -39q-17.5 9 -65.5 12.5t-150 3.5h-2h-1q-100 0 -147 -3.5t-64.5 -12.5t-17.5 -28t17.5 -28t64.5 -12t150 -3t150.5 3t65 12t17.5 28t-17.5 28zM360 860q0 -45 26 -67.5t81 -22.5t81 22.5t26 67.5h120q0 -99 -62.5 -144.5t-164.5 -45.5t-164.5 45.5t-62.5 144.5h120z
" />
    <glyph glyph-name="uni0123.ss01" horiz-adv-x="985" 
d="M955 600v-100q-32 0 -95 14q36 -45 36 -111q0 -105 -97.5 -161.5t-325.5 -56.5q-127 0 -173.5 -1.5t-64 -7t-17.5 -20.5t19 -20.5t70.5 -7t194.5 -1.5q156 0 247 -17t133.5 -59.5t42.5 -118.5q0 -79 -48 -121t-137.5 -56.5t-237.5 -14.5q-155 0 -249.5 9t-148.5 38
t-54 86q0 51 45 79.5t116 36.5q-77 12 -119 41t-42 81q0 89 139 112q-139 51 -139 180q0 104 97 160.5t326 56.5q132 0 223 -20h259zM598 335.5q38 20.5 38 67.5q0 46 -38 66.5t-125 20.5q-88 0 -125.5 -20.5t-37.5 -66.5q0 -47 37.5 -67.5t125.5 -20.5q87 0 125 20.5z
M717.5 -39q-17.5 9 -65.5 12.5t-150 3.5h-2h-1q-100 0 -147 -3.5t-64.5 -12.5t-17.5 -28t17.5 -28t64.5 -12t150 -3t150.5 3t65 12t17.5 28t-17.5 28zM567 820v-120h-200v120l103 110h97l-68 -110h68z" />
    <glyph glyph-name="gdotaccent.ss01" horiz-adv-x="985" 
d="M955 600v-100q-32 0 -95 14q36 -45 36 -111q0 -105 -97.5 -161.5t-325.5 -56.5q-127 0 -173.5 -1.5t-64 -7t-17.5 -20.5t19 -20.5t70.5 -7t194.5 -1.5q156 0 247 -17t133.5 -59.5t42.5 -118.5q0 -79 -48 -121t-137.5 -56.5t-237.5 -14.5q-155 0 -249.5 9t-148.5 38
t-54 86q0 51 45 79.5t116 36.5q-77 12 -119 41t-42 81q0 89 139 112q-139 51 -139 180q0 104 97 160.5t326 56.5q132 0 223 -20h259zM598 335.5q38 20.5 38 67.5q0 46 -38 66.5t-125 20.5q-88 0 -125.5 -20.5t-37.5 -66.5q0 -47 37.5 -67.5t125.5 -20.5q87 0 125 20.5z
M717.5 -39q-17.5 9 -65.5 12.5t-150 3.5h-2h-1q-100 0 -147 -3.5t-64.5 -12.5t-17.5 -28t17.5 -28t64.5 -12t150 -3t150.5 3t65 12t17.5 28t-17.5 28zM367 700v100h200v-100h-200z" />
    </font>
</defs>
</svg>
