<svg width="47" height="53" viewBox="0 0 47 53" fill="none" xmlns="http://www.w3.org/2000/svg">
<path d="M21.15 0.382117C18.7238 0.372804 16.5842 2.13828 15.9017 4.71267H2.34996C1.0521 4.71267 0 5.87616 0 7.3112V24.6336C0 26.0687 1.0521 27.232 2.34996 27.232C16.9082 27.232 15.3674 27.1747 15.6666 27.3636V46.2868C15.6701 49.6336 18.1231 52.3457 21.15 52.3496H41.5168C44.5437 52.3457 46.9965 49.6336 47 46.2868V6.44488C46.9965 3.09803 44.5437 0.385926 41.5168 0.382103H21.15V0.382117ZM21.15 2.11434H41.5168C43.6788 2.11721 45.4308 4.05435 45.4334 6.4449H24.9225C24.5917 5.41044 23.709 4.71722 22.7167 4.71267H17.5757C18.1892 3.13342 19.5956 2.11111 21.15 2.11434ZM2.34996 6.4449H22.7167C23.1493 6.4449 23.5 6.83288 23.5 7.3112V24.6336C23.5 25.112 23.1493 25.4997 22.7167 25.4997H21.15C20.7174 25.4997 20.3667 25.8875 20.3667 26.3658V28.3379C15.6886 25.3819 15.9572 25.4997 15.6666 25.4997H2.34996C1.91734 25.4997 1.56664 25.112 1.56664 24.6336V7.3112C1.56664 6.83286 1.91734 6.4449 2.34996 6.4449ZM25.0666 8.17732H45.4334V44.5544H17.2332V28.358L20.7583 30.5822C21.0009 30.7371 21.2999 30.7368 21.5423 30.5816C21.7848 30.4265 21.9339 30.14 21.9334 29.8303V27.232H22.7167C24.0145 27.232 25.0666 26.0687 25.0666 24.6336V8.17732ZM16.2199 8.26614C13.8723 8.27015 10.8817 8.76646 8.60919 10.8161C4.33256 14.6744 4.42006 22.3938 4.42561 22.721C4.43241 23.0511 4.6409 23.334 4.93229 23.4065C5.51746 23.5424 6.10899 23.6433 6.70458 23.7043C9.07727 23.9705 13.3237 23.9695 16.3203 21.2679C20.5974 17.4097 20.5095 9.68946 20.5039 9.36298C20.4981 9.03243 20.2893 8.74867 19.9974 8.67608C19.8622 8.64238 18.2913 8.26256 16.2199 8.26611V8.26614ZM16.2321 9.71131C17.512 9.7097 18.5908 9.86279 19.1933 9.97162C19.1246 11.7728 18.6529 17.3099 15.4968 20.154C12.7934 22.5937 8.73578 22.4987 6.6187 22.2405L9.96678 19.2207C12.163 19.9684 12.0171 19.9248 12.1077 19.935C12.4404 19.9731 12.7429 19.7251 12.8118 19.3626C12.8781 18.9999 12.6848 18.6407 12.3646 18.5326L11.1779 18.1292L12.6029 16.8399C14.7992 17.5871 14.653 17.5439 14.7442 17.5541C15.0777 17.5936 15.3818 17.3465 15.4507 16.9836C15.5181 16.6204 15.3243 16.2604 15.0036 16.1522L13.8169 15.7487L16.5708 13.2648C16.755 13.1028 16.8385 12.8462 16.8017 12.5927C16.764 12.3391 16.6075 12.1268 16.39 12.0357C16.1731 11.9446 15.9284 11.9886 15.7487 12.1511L12.9957 14.632L12.8765 13.2664C12.8531 13.0107 12.7088 12.7882 12.4967 12.6825C12.2852 12.577 12.0379 12.6043 11.8491 12.7543C11.6587 12.9042 11.5597 13.1545 11.582 13.4101L11.7857 15.7289L10.3573 17.017L10.238 15.6512C10.219 15.3928 10.0756 15.1659 9.86224 15.0572C9.64942 14.9487 9.40025 14.9755 9.21034 15.127C9.02133 15.2787 8.91689 15.5314 8.9441 15.7892L9.14669 18.1094C7.95008 19.1881 8.60321 18.5995 5.79844 21.129C5.9927 18.7798 6.72405 14.3697 9.43123 11.9282C11.4071 10.1461 14.0989 9.71401 16.2321 9.71131L16.2321 9.71131ZM21.15 32.4286C19.8522 32.4286 18.8001 33.5921 18.8001 35.0272V36.7594C18.8001 38.1944 19.8522 39.3577 21.15 39.3577H35.7983L40.301 42.6767C40.5413 42.8525 40.8495 42.8685 41.1035 42.7179C41.3575 42.5674 41.5162 42.2747 41.5168 41.9561V39.3578C42.8146 39.3578 43.8667 38.1945 43.8667 36.7594V35.0272C43.8667 33.5922 42.8146 32.4287 41.5168 32.4287H21.15V32.4286ZM21.15 34.1611H41.5168C41.9494 34.1611 42.3001 34.5488 42.3001 35.0272V36.7594C42.3001 37.2377 41.9494 37.6255 41.5168 37.6255H40.7332C40.3006 37.6255 39.9499 38.0133 39.9499 38.4916V40.3372C36.1954 37.57 36.3615 37.6255 36.0333 37.6255H21.15C20.7174 37.6255 20.3667 37.2377 20.3667 36.7594V35.0272C20.3667 34.5488 20.7174 34.161 21.15 34.161L21.15 34.1611ZM17.2333 46.2868H45.4334C45.4308 48.6774 43.6788 50.6145 41.5168 50.6174H32.1167V48.8851C32.1167 48.4068 31.766 48.019 31.3334 48.019C30.9008 48.019 30.5501 48.4068 30.5501 48.8851V50.6174H21.15C18.988 50.6145 17.2358 48.6773 17.2332 46.2868L17.2333 46.2868Z" fill="url(#paint0_linear_146_33)"/>
<defs>
<linearGradient id="paint0_linear_146_33" x1="0.589606" y1="38.636" x2="47.021" y2="38.5783" gradientUnits="userSpaceOnUse">
<stop stop-color="#8CCBF4"/>
<stop offset="1" stop-color="#01FFCA"/>
</linearGradient>
</defs>
</svg>
